<svg xmlns="http://www.w3.org/2000/svg" width="204.77" height="284.635" viewBox="0 0 204.77 284.635"><g transform="matrix(0.998, 0.07, -0.07, 0.998, -57.466, -134.899)"><g transform="translate(86.301 329.922)"><g transform="translate(13.904)"><g transform="translate(0)"><rect width="151.54" height="33.919" transform="translate(0.076 0) rotate(0.128)" fill="#3d3d45"/></g><g transform="translate(11.895 6.628)"><g transform="translate(0 0.901)"><path d="M141.174,481.946a10.459,10.459,0,0,0,10.723-9.127c.8-5.582-2.661-9.16-8.1-9.172a10.438,10.438,0,0,0-10.7,9.13C132.3,478.36,135.736,481.937,141.174,481.946Zm-4.089-9.159a6.218,6.218,0,0,1,6.213-5.6c3.274.006,5.063,2.373,4.612,5.62a6.235,6.235,0,0,1-6.212,5.595C138.426,478.4,136.611,476.031,137.085,472.787Z" transform="translate(-132.985 -463.647)" fill="#fff"/></g><g transform="translate(19.931 3.292)"><path d="M171.815,467.473l-3.69-.007-.526,3.542-2.361,0-.425,2.949,2.362.007-.8,5.681c-.377,2.607,1.368,3.621,3.83,3.627a8.058,8.058,0,0,0,2.632-.363l.45-3.076a2.916,2.916,0,0,1-1.55.342c-1.6,0-1.624-.94-1.422-2.218l.549-3.983,3.249.006.423-2.949-3.247-.009Z" transform="translate(-164.814 -467.466)" fill="#fff"/></g><g transform="translate(29.83 6.576)"><path d="M190.286,476.206l.477-3.371a4.493,4.493,0,0,0-1.205-.125,4.351,4.351,0,0,0-3.77,2.205l-.049,0,.274-1.918-3.689-.009-1.7,11.953,3.69.009.723-4.993c.326-2.384.9-4.007,3.7-4A5.179,5.179,0,0,1,190.286,476.206Z" transform="translate(-180.623 -472.71)" fill="#fff"/></g><g transform="translate(39.694 6.593)"><path d="M203.718,472.737a8.757,8.757,0,0,0-5.541,1.907l1.693,2.021a4.576,4.576,0,0,1,3.2-1.42,1.852,1.852,0,0,1,2.037,2.147c-3.075-.008-8.095.054-8.694,4.185-.326,2.411,1.493,3.694,3.733,3.7a5.057,5.057,0,0,0,4.062-1.786h.049l-.225,1.5,3.4.009.874-6.076C208.853,474.937,208.023,472.747,203.718,472.737Zm.941,7.8a2.886,2.886,0,0,1-3.105,2.23c-.812,0-1.7-.422-1.572-1.307.225-1.625,2.76-1.717,3.892-1.714l.91,0Z" transform="translate(-196.377 -472.737)" fill="#fff"/></g><g transform="translate(60.469)"><path d="M230.712,481.085l3.691.008,1.275-9,2.731.006.423-2.95-2.73-.006.277-1.894c.224-1.575.863-1.942,2.044-1.94a3.2,3.2,0,0,1,1.182.25l.62-3.123a8.611,8.611,0,0,0-2.139-.226c-4.01-.01-5,2.2-5.374,4.81l-.3,2.114-2.435,0-.423,2.949,2.435.006Z" transform="translate(-229.553 -462.208)" fill="#fff"/></g><g transform="translate(69.789 6.66)"><path d="M250.255,485.388a7.4,7.4,0,0,0,7.542-6.257c.549-3.814-2.051-6.277-5.742-6.287a7.4,7.4,0,0,0-7.543,6.256C243.961,482.914,246.564,485.381,250.255,485.388Zm-2.052-6.279a3.293,3.293,0,0,1,3.378-3.018,2.4,2.4,0,0,1,2.526,3.03,3.293,3.293,0,0,1-3.376,3.02A2.4,2.4,0,0,1,248.2,479.109Z" transform="translate(-244.438 -472.844)" fill="#fff"/></g><g transform="translate(84.47 6.697)"><path d="M276,476.148a5.425,5.425,0,0,1,1.55.251l.476-3.369a4.567,4.567,0,0,0-1.2-.126,4.358,4.358,0,0,0-3.771,2.205H273l.276-1.918-3.692-.008-1.7,11.951,3.691.008.724-4.993C272.624,477.765,273.193,476.142,276,476.148Z" transform="translate(-267.883 -472.903)" fill="#fff"/></g><g transform="translate(94.488 6.719)"><path d="M291.435,485.185l3.69.01.9-6.321c.225-1.475.917-2.679,2.614-2.675,1.2,0,1.5.937,1.349,2.045l-1,6.96,3.69.008,1-7.061c.423-2.9-.235-5.19-3.483-5.195a4.526,4.526,0,0,0-4.091,2.13c-.438-1.453-1.714-2.143-3.388-2.148a4.555,4.555,0,0,0-3.769,1.912l-.048,0,.224-1.625-3.544-.006-1.7,11.951,3.691.008.849-5.949c.225-1.551.72-3.05,2.641-3.047,1.7,0,1.4,1.8,1.272,2.684Z" transform="translate(-283.882 -472.938)" fill="#fff"/></g><g transform="translate(115.748 6.765)"><path d="M321.605,485.548a5.049,5.049,0,0,0,4.063-1.786l.048,0-.225,1.5,3.4.007.874-6.075c.551-3.986-.28-6.177-4.586-6.183a8.738,8.738,0,0,0-5.54,1.9l1.691,2.021a4.582,4.582,0,0,1,3.2-1.421,1.853,1.853,0,0,1,2.038,2.147c-3.075-.008-8.095.054-8.7,4.185C317.547,484.261,319.365,485.545,321.605,485.548Zm-.163-3.813c.224-1.625,2.758-1.718,3.89-1.715l.91,0-.124.789a2.882,2.882,0,0,1-3.105,2.229C322.2,483.04,321.314,482.62,321.442,481.734Z" transform="translate(-317.835 -473.011)" fill="#fff"/></g></g></g><g transform="translate(0 37.741)"><g transform="translate(0 0)"><rect width="179.349" height="33.919" transform="matrix(1, 0.002, -0.002, 1, 0.076, 0)" fill="#3d3d45"/></g><g transform="translate(12.348 6.523)"><g transform="translate(0 0.143)"><path d="M121.564,530.461h-.049c-.66-1.158-2.039-1.579-3.564-1.582-3.4-.007-5.885,3.035-6.362,6.358-.524,3.612,1.44,6.178,4.981,6.186a5.451,5.451,0,0,0,3.939-1.861h.051l-.225,1.574,3.4.007,2.65-18.594-3.69-.008Zm-.379,4.7a3.294,3.294,0,0,1-3.376,3.019,2.4,2.4,0,0,1-2.529-3.032,3.292,3.292,0,0,1,3.376-3.018A2.4,2.4,0,0,1,121.184,535.159Z" transform="translate(-111.504 -522.542)" fill="#fff"/></g><g transform="translate(15.591 6.52)"><path d="M144.017,532.725a7.4,7.4,0,0,0-7.54,6.255c-.55,3.813,2.053,6.279,5.743,6.287a7.584,7.584,0,0,0,5.394-2.351l-2.311-1.9a3.744,3.744,0,0,1-2.857,1.444,2.309,2.309,0,0,1-2.431-2.318l8.561.019.152-1.155C149.278,535.194,147.461,532.731,144.017,532.725Zm1.22,4.922-4.871-.011a2.916,2.916,0,0,1,2.934-2.258A1.881,1.881,0,0,1,145.237,537.647Z" transform="translate(-136.403 -532.725)" fill="#fff"/></g><g transform="translate(36.92 0.226)"><path d="M180.524,530.595h-.049c-.663-1.156-2.039-1.578-3.566-1.582-3.4-.008-5.885,3.038-6.36,6.358-.525,3.614,1.437,6.18,4.979,6.185a5.456,5.456,0,0,0,3.941-1.861l.049,0-.224,1.573,3.395.009,2.652-18.594-3.693-.009Zm-.379,4.7a3.3,3.3,0,0,1-3.378,3.018,2.4,2.4,0,0,1-2.527-3.032,3.3,3.3,0,0,1,3.375-3.02A2.4,2.4,0,0,1,180.144,535.293Z" transform="translate(-170.464 -522.674)" fill="#fff"/></g><g transform="translate(54.083 0.984)"><path d="M200.338,523.884a2.549,2.549,0,0,0-2.442,2.135,1.822,1.822,0,0,0,1.843,2.144,2.547,2.547,0,0,0,2.438-2.136A1.817,1.817,0,0,0,200.338,523.884Z" transform="translate(-197.873 -523.884)" fill="#fff"/></g><g transform="translate(52.152 6.883)"><path d="M194.791,545.256l3.692.008,1.7-11.952-3.692-.008Z" transform="translate(-194.791 -533.305)" fill="#fff"/></g><g transform="translate(57.991 6.612)"><path d="M210.6,535.675a2.247,2.247,0,0,1,1.99,1.013l2.588-2.232a5.307,5.307,0,0,0-4.2-1.584c-2.508-.006-5.194,1.219-5.591,4.023-.651,4.549,5.8,2.937,5.522,4.859-.075.641-.96.858-1.8.855A2.7,2.7,0,0,1,206.7,541.3l-2.587,2.481a5.759,5.759,0,0,0,4.448,1.633c2.56.005,5.636-.874,6.086-3.924.649-4.549-5.8-3.064-5.55-4.834C209.2,535.943,209.989,535.674,210.6,535.675Z" transform="translate(-204.115 -532.872)" fill="#fff"/></g><g transform="translate(70.017)"><path d="M229.872,529.247l.275-1.894c.225-1.574.865-1.942,2.046-1.94a3.188,3.188,0,0,1,1.181.25l.621-3.123a8.64,8.64,0,0,0-2.139-.226c-4.01-.01-5,2.2-5.374,4.81l-.3,2.114-2.435,0-.425,2.949,2.436.006-1.276,9,3.692.008,1.274-9,2.729.006.426-2.949Z" transform="translate(-223.321 -522.313)" fill="#fff"/></g><g transform="translate(79.007 6.664)"><path d="M242.841,535.158h-.051l.276-1.917-3.689-.01-1.7,11.954,3.69.007.723-4.993c.326-2.384.895-4.008,3.7-4a5.4,5.4,0,0,1,1.55.248l.475-3.367a4.413,4.413,0,0,0-1.206-.126A4.351,4.351,0,0,0,242.841,535.158Z" transform="translate(-237.677 -532.955)" fill="#fff"/></g><g transform="translate(89.632 6.966)"><path d="M262.713,539.4c-.227,1.55-.721,3.05-2.642,3.046-1.893,0-1.669-1.773-1.468-3.152l.825-5.854-3.69-.007-.924,6.589c-.475,3.2-.136,5.661,3.6,5.667a4.551,4.551,0,0,0,3.769-1.912h.048l-.224,1.625,3.544.006,1.7-11.952-3.691-.008Z" transform="translate(-254.646 -533.437)" fill="#fff"/></g><g transform="translate(103.27 3.456)"><path d="M283.427,527.839l-3.69-.008-.526,3.542-2.361-.005-.425,2.952,2.363.005-.8,5.679c-.374,2.607,1.371,3.622,3.831,3.626a7.983,7.983,0,0,0,2.632-.363l.453-3.076a2.906,2.906,0,0,1-1.552.342c-1.6,0-1.622-.94-1.422-2.217l.548-3.985,3.248.009.425-2.952-3.247-.007Z" transform="translate(-276.425 -527.832)" fill="#fff"/></g><g transform="translate(113.016 6.735)"><path d="M299.331,533.068a8.751,8.751,0,0,0-5.54,1.908L295.485,537a4.561,4.561,0,0,1,3.2-1.419,1.852,1.852,0,0,1,2.038,2.144c-3.075-.005-8.1.058-8.7,4.189-.325,2.41,1.494,3.694,3.733,3.7a5.044,5.044,0,0,0,4.063-1.789l.049,0-.225,1.5,3.4.007.874-6.076C304.467,535.269,303.636,533.078,299.331,533.068Zm.942,7.8a2.883,2.883,0,0,1-3.105,2.232c-.813,0-1.7-.42-1.571-1.306.224-1.625,2.758-1.717,3.89-1.714l.909,0Z" transform="translate(-291.99 -533.068)" fill="#fff"/></g><g transform="translate(126.387 6.769)"><path d="M322.275,533.123a4.352,4.352,0,0,0-3.769,2.205h-.048l.274-1.917-3.691-.008-1.7,11.952,3.69.007.724-4.992c.326-2.385.894-4.008,3.7-4a5.448,5.448,0,0,1,1.55.25l.475-3.369A4.573,4.573,0,0,0,322.275,533.123Z" transform="translate(-313.343 -533.123)" fill="#fff"/></g><g transform="translate(136.454 0.43)"><path d="M332.07,523l-2.65,18.594,3.692.008,2.649-18.594Z" transform="translate(-329.419 -523)" fill="#fff"/></g><g transform="translate(142.65 6.802)"><path d="M346.656,533.175a8.742,8.742,0,0,0-5.539,1.907l1.693,2.019a4.577,4.577,0,0,1,3.2-1.418,1.851,1.851,0,0,1,2.036,2.145c-3.075-.006-8.093.057-8.694,4.188-.325,2.41,1.492,3.7,3.731,3.7a5.054,5.054,0,0,0,4.064-1.786l.049,0-.225,1.5,3.4.007.874-6.075C351.792,535.375,350.961,533.184,346.656,533.175Zm.942,7.8a2.881,2.881,0,0,1-3.1,2.232c-.812,0-1.7-.419-1.572-1.307.225-1.624,2.759-1.716,3.892-1.714l.909,0Z" transform="translate(-339.316 -533.175)" fill="#fff"/></g></g></g></g><g transform="translate(80.086 129.628)"><path d="M177.786,323.609a95.928,95.928,0,1,1,67.831-28.1A95.3,95.3,0,0,1,177.786,323.609Zm0-185.83a89.9,89.9,0,1,0,89.9,89.9A90.005,90.005,0,0,0,177.786,137.779Z" transform="translate(-81.859 -131.755)" fill="#fff"/></g><g transform="translate(77.117 126.065)"><rect width="166.307" height="167.854" transform="matrix(0.978, -0.21, 0.21, 0.978, 0, 34.855)" fill="#3d3d45"/></g><g transform="translate(156.522 218.007)"><path d="M239.9,278.92H206.938a3.012,3.012,0,0,1,0-6.024H239.9a3.012,3.012,0,1,1,0,6.024Z" transform="translate(-203.926 -272.896)" fill="#fff"/></g><g transform="translate(100.886 150.757)"><path d="M262.318,315.752H118.088a3.012,3.012,0,0,1-3.012-3.012V168.51a3.012,3.012,0,0,1,3.012-3.012h144.23a3.012,3.012,0,0,1,3.012,3.012V312.74A3.012,3.012,0,0,1,262.318,315.752ZM121.1,309.728H259.306V171.522H121.1Z" transform="translate(-115.076 -165.498)" fill="#fff"/></g><g transform="translate(113.484 166.101)"><path d="M260.185,205.624c.005-.6-.039-1.111-.074-1.512-.011-.13-.027-.261-.029-.391a5.909,5.909,0,0,0-.052-.781c-.017-.125-.027-.25-.039-.374a12.306,12.306,0,0,0-.524-2.776,11.565,11.565,0,0,0-.823-1.922c-.036-.07-.073-.139-.108-.211a7.155,7.155,0,0,0-1.65-2.379,7.7,7.7,0,0,0-1-1.009l-.034-.031a8.314,8.314,0,0,0-1.523-1.172l-.063-.044a9.483,9.483,0,0,0-1.72-1.011,8.482,8.482,0,0,0-1.307-.619,9.165,9.165,0,0,0-2.549-.757,29.3,29.3,0,0,0-3.592-.385c-.99-.093-2.014-.189-3.091-.239-.093,0-.187-.007-.28-.007-.727,0-1.443.049-2.113.1a6.877,6.877,0,0,0-1.934.4c-.08.013-.174.025-.267.039-.225.034-.451.07-.677.11-.1.018-.2.038-.294.061a6.41,6.41,0,0,1-.669.076h-.095a7.8,7.8,0,0,0-2.915.51,6.394,6.394,0,0,0-1.353.484q-.22.108-.43.234a6.283,6.283,0,0,0-3.106,5.242c-.2-.342-.394-.685-.634-1.033a11.379,11.379,0,0,0-2.6-2.668,7.476,7.476,0,0,0-1.425-.946,6.009,6.009,0,0,0-.668-.29c-.262-.1-.523-.178-.783-.258l-.047-.014-.03-.015a12.984,12.984,0,0,0-3.291-1.066c-.177-.037-.354-.073-.529-.118-.1-.026-.2-.051-.3-.072a20.344,20.344,0,0,0-4.186-.463q-.28,0-.562.009h-1.105a13.582,13.582,0,0,0-3.126.34,5.945,5.945,0,0,0-.684.2,7.273,7.273,0,0,0-1.274.379,6.355,6.355,0,0,0-.822.3l-.009,0-.134.033a6.028,6.028,0,0,0-2.148,1.027,6.14,6.14,0,0,0-.53.434,8.619,8.619,0,0,0-2.5,2.654,6.3,6.3,0,0,0-3.576-3.718,6.093,6.093,0,0,0-.637-.231l-.216-.065a22.619,22.619,0,0,0-3.47-.831c-.136-.019-.272-.034-.408-.044l-1.9-.14-1.638-.121c-.146-.019-.281-.031-.4-.04a7.8,7.8,0,0,0-1.342-.115,10.2,10.2,0,0,0-1.282.089l-.062.008a6.26,6.26,0,0,0-2.813.936,6.824,6.824,0,0,0-.961-.249,8.819,8.819,0,0,0-1.714-.149h-3.128c-.126,0-.252,0-.379.012-.427.027-.869.066-1.309.106-.329.03-.659.061-.979.081-.075.005-.15.011-.225.018s-.178.012-.3.014a6.662,6.662,0,0,0-1.344-.137,7.637,7.637,0,0,0-1.3.118,6.125,6.125,0,0,0-4.823,4.232c-.066-.09-.126-.187-.195-.275a11.34,11.34,0,0,0-2.09-2.116,6.013,6.013,0,0,0-2.814-1.665c-.118-.05-.249-.1-.391-.152a13.812,13.812,0,0,0-1.319-.44,12.018,12.018,0,0,0-3.669-.6q-.22,0-.44.009H154.1c-1.364,0-2.712-.04-4.138-.082l-.259-.008c-.059,0-.119,0-.178,0-.687,0-1.287.049-1.765.1a8.874,8.874,0,0,0-1.711.185,16.611,16.611,0,0,0-2.959.683c-.072.024-.144.049-.215.076a15.719,15.719,0,0,0-2.957,1.542,6.188,6.188,0,0,0-1.913,1.72,11.9,11.9,0,0,0-2.246,4.315,11.13,11.13,0,0,0-.485,2.864l-.015.22a16.81,16.81,0,0,0-.069,1.748c0,.331.014.662.03.993.005.105.011.211.014.317a29.961,29.961,0,0,0,.057,3.624c.008.176.021.352.038.527,0,.4.007.871.049,1.395q0,.182.011.359l0,.121a8.337,8.337,0,0,0,.073,2.109,10.852,10.852,0,0,0,.083,1.716l0,.027a10.366,10.366,0,0,0,.048,1.243,12.852,12.852,0,0,0,.19,2.76,7.267,7.267,0,0,0,.086,1.326,11.761,11.761,0,0,0,.163,4.4c.012.061.024.123.038.184l.559,2.522c.027.12.057.24.091.358l.281.98a6.084,6.084,0,0,0,.252.709l.771,1.8a6.033,6.033,0,0,0,.811,1.449,12.461,12.461,0,0,0,1.413,1.884,6.286,6.286,0,0,0,2.49,1.876l.065.031a9.884,9.884,0,0,0,1.672.637l.283.089a12.164,12.164,0,0,0,3.113.639q.382.068.771.122c.041.053.084.106.127.157l.1.115.629,1.185a6.421,6.421,0,0,0,5.827,3.628,7.885,7.885,0,0,0,.887-.053q.188-.021.375-.054c.614-.108,1.215-.186,1.986-.276.078-.006.148-.007.217-.007h.158c.309,0,.617-.017.924-.039h.007c.518.03,1.048.059,1.6.075a5.968,5.968,0,0,0,.831.058,6.811,6.811,0,0,0,2.011-.281,6.345,6.345,0,0,0,4.274-3.7,6.438,6.438,0,0,0-.609-5.979c-.234-.388-.492-.814-.793-1.267l-.083-.167c.045-.071.089-.143.132-.215s.07-.118.1-.178a13.055,13.055,0,0,0,.751-1.645,6.48,6.48,0,0,0,.537,1.059,6.071,6.071,0,0,0,.535.98l.257.384a12.863,12.863,0,0,0,1.041,1.257c.078.077.15.16.224.242a14.548,14.548,0,0,0,1.157,1.17q.146.129.3.248c.443.346.865.626,1.2.85.13.086.263.173.4.266a5.838,5.838,0,0,0,.5.315A12.273,12.273,0,0,0,179,237.457c.857.085,1.619.111,2.292.133.281.009.561.018.842.033.1.005.2.008.3.008s.366.026.563.044c.4.038.877.083,1.421.093.3.016.608.023.912.023.279,0,.557-.006.835-.012.188,0,.377-.009.565-.009a15.358,15.358,0,0,0,5.207-.972,12.673,12.673,0,0,0,2.589-1.231l.157-.092a9.266,9.266,0,0,0,2.783-2.463,18.875,18.875,0,0,0,1.326-1.938c.039-.062.068-.128.106-.19.031.21.048.406.085.623a6.321,6.321,0,0,0,6.265,5.532,6.643,6.643,0,0,0,1.587-.193l1.044-.071,2.7-.185c.384-.027.783-.031,1.232-.031a6.672,6.672,0,0,0,.778.045,6.764,6.764,0,0,0,1.229-.111,6.382,6.382,0,0,0,3.451,1.007c.128,0,.256,0,.384-.011l.2-.007a10.782,10.782,0,0,0,1.527.1c.426,0,.853-.024,1.294-.054l3.024-.127c.066.008.132.017.2.026l.122.015a5.942,5.942,0,0,0,.753.048,6.628,6.628,0,0,0,5.054-2.336,6.515,6.515,0,0,0,.466-.666,6.656,6.656,0,0,0,2.587,1.418l.109.03a19.374,19.374,0,0,0,3.931.654c.353.023.705.031,1.057.036.149,0,.3,0,.446.012.072.011.105.015.178.023,1.455.155,2.88.257,4.137.346q.213.015.426.015c.2,0,.39-.009.583-.028l.208,0a9.025,9.025,0,0,0,1.008-.054c1.109-.105,2.126-.212,3.222-.423a13.61,13.61,0,0,0,2.982-.722,9.928,9.928,0,0,0,2.245-1.22l.164-.111c.147-.088.271-.17.4-.267a8.2,8.2,0,0,0,1.273-1.024,11.5,11.5,0,0,0,2.3-3.383,19.148,19.148,0,0,0,.77-2.046l.033-.1a14.924,14.924,0,0,0,.915-3.78c.031-.2.059-.4.086-.605.022-.163.038-.331.073-.49l.067-.269.065-.259a6.026,6.026,0,0,0,.162-.967c.016-.193.041-.393.065-.6.048-.4.095-.817.126-1.231l.1-1.318.041-.549q.017-.225.017-.451v-.909c.047-.629.047-1.2.047-1.706V209.94c0-.387,0-.752.022-.991a8.371,8.371,0,0,0,.026-1.207A7.688,7.688,0,0,0,260.185,205.624Z" transform="translate(-135.194 -190.002)" fill="#d9000d"/><g transform="translate(6.024 6.024)"><g transform="translate(0 0.14)"><path d="M165.918,240.189c-.793,0-1.587-.047-2.381-.094-.327,0-.653.047-.981.047a8.21,8.21,0,0,0-1.073.047c-.795.093-1.542.187-2.334.327-.42.047-.513,0-.7-.374l-.793-1.494a6.142,6.142,0,0,0-.654-.887l-1.26-1.728-.281-.421a.164.164,0,0,0-.093.047,16.223,16.223,0,0,1-3.036-.281c-.046-.046-.14-.093-.187-.046a7.349,7.349,0,0,1-2.428-.513,6.805,6.805,0,0,1-1.026-.42c-.14-.048-.187-.187-.281-.281a7.085,7.085,0,0,1-1.026-1.4c-.047-.094-.142-.14-.142-.187l-.84-1.962-.281-.98-.559-2.522a6.231,6.231,0,0,1-.141-2.288,5.34,5.34,0,0,0,.047-1.728,1.029,1.029,0,0,1,0-.653c.094-.187,0-.373-.047-.56a6.724,6.724,0,0,1-.187-2.149,11.291,11.291,0,0,1-.046-1.26c0-.513-.141-1.073-.094-1.587.094-.607-.187-1.168-.094-1.728a12.136,12.136,0,0,0,0-1.307,11.621,11.621,0,0,1-.046-1.26c0-.234-.047-.468-.047-.7a24.166,24.166,0,0,1-.047-3.173c0-.468-.046-.936-.046-1.4a10.752,10.752,0,0,1,.046-1.214,7.737,7.737,0,0,1,.234-1.775,5.562,5.562,0,0,1,1.354-2.522c0-.046.046-.14.093-.14a7.964,7.964,0,0,1,4.2-1.587,3.152,3.152,0,0,1,.934-.094,13.889,13.889,0,0,1,1.447-.093c1.542.045,3.036.093,4.575.093h1.4a5.833,5.833,0,0,1,2.194.326,8.126,8.126,0,0,1,.981.328c.326.093.56.326.934.326.048,0,.048.093.093.14a1.63,1.63,0,0,0,.281.281,4.347,4.347,0,0,1,1.354,1.26,6.635,6.635,0,0,1,1.074,2.241c.094.279.279.56.14.887.328.374.234.842.42,1.26a5.5,5.5,0,0,1,.187,1.962,4.1,4.1,0,0,0,.094.794,11.537,11.537,0,0,1,.046,2.195c0,.373-.046.747-.046,1.12a8.948,8.948,0,0,0,.046,1.121c0,.794.047,1.541,0,2.289a18.242,18.242,0,0,0-.046,2.755,9.489,9.489,0,0,1-.047,1.634,22.077,22.077,0,0,0-.094,2.475,3.04,3.04,0,0,1,0,.654c0,.932-.048,1.821-.048,2.755-.045.513-.045.981-.045,1.494,0,.187-.048.374-.048.56a7.952,7.952,0,0,1-.887,2.755,5.951,5.951,0,0,1-1.635,1.775l-.513.326a5.631,5.631,0,0,0,.421,1.074,4.883,4.883,0,0,1,.513.981c.142.42.327.793.515,1.214l.28.515.326.653c.326.468.607.934.889,1.4.279.421.232.607-.234.7a.815.815,0,0,1-.328.046Zm-7.89-28.763a9.509,9.509,0,0,0-.56-2.2,1.576,1.576,0,0,0-1.542-1.073,4.708,4.708,0,0,0-1.167.094,2.706,2.706,0,0,0-.887.187,1.119,1.119,0,0,0-.56.466,3.4,3.4,0,0,0-.327,1.354,8.291,8.291,0,0,0-.047,1.868v.14a4.044,4.044,0,0,0-.094,1.307,9.169,9.169,0,0,0,0,1.121c0,.607-.046,1.215-.046,1.822,0,.653.046,1.306,0,1.961a.376.376,0,0,0,.187.373.719.719,0,0,1,.232.747c0,.14-.046.327-.046.513.046.56.046,1.168.046,1.775a4.235,4.235,0,0,0,.047.793,3.284,3.284,0,0,1,.048,1.167,4.017,4.017,0,0,0,.047,1.495,3.437,3.437,0,0,0,.187.654,1.665,1.665,0,0,0,2.008,1.166,5,5,0,0,0,2.521-1.494.69.69,0,0,0,.281-.606c0-.234.14-.467.14-.7a7.549,7.549,0,0,0,.047-1.028c0-.747,0-1.447-.047-2.149,0-.279.047-.559.047-.84l-.094-2.662a2,2,0,0,1-.046-.234c.234-.279.093-.606.046-.932-.093-.654-.14-1.309-.185-1.915-.047-.56-.047-1.121-.047-1.728a8.946,8.946,0,0,0-.047-1.073Z" transform="translate(-144.814 -199.846)" fill="#fff"/></g><g transform="translate(30.626 0.393)"><path d="M194.608,201.07a.653.653,0,0,0,.515.047,13.945,13.945,0,0,0,1.4-.047c.748-.047,1.542-.14,2.289-.187h3.128a2.863,2.863,0,0,1,.607.047c.279.047.42.187.373.466-.141.887.093,1.728,0,2.614,0,.468.093.887.093,1.355,0,.094-.046.14-.046.234a2.239,2.239,0,0,0,0,.56,7.972,7.972,0,0,1,.093,2.568c0,.373.047.747.047,1.12a1.159,1.159,0,0,1-.047.421.777.777,0,0,0,.047.56c.093.14.046.326.046.513,0,.56.047,1.12.047,1.728a1.281,1.281,0,0,1-.047.42,10.9,10.9,0,0,0,.047,1.728v.14a5.1,5.1,0,0,0-.047,1.683v.327a.555.555,0,0,0-.046.373,6.164,6.164,0,0,1,.187,1.587,5.77,5.77,0,0,0,.093,1.26c.047.234-.14.562.094.795-.234.373.093.794-.047,1.167-.093.187.047.468.047.7a9.622,9.622,0,0,0,.14,1.168,8.191,8.191,0,0,0,.234,1.027,9.209,9.209,0,0,0,.513.935,1.966,1.966,0,0,0,.795.513c.232.093.513.187.794.326a1,1,0,0,0,.279-.093,1.363,1.363,0,0,0,1.074-.7,4.56,4.56,0,0,0,.56-1.307,17.074,17.074,0,0,0,.187-3.783,15.665,15.665,0,0,0,0-2.1c0-.889,0-1.821-.047-2.709-.046-1.168-.093-2.288-.14-3.409-.045-.887-.045-1.773-.045-2.661-.048-.794-.048-1.634-.048-2.475a.777.777,0,0,1,.048-.327,7.08,7.08,0,0,0,0-1.4q-.142-1.82-.281-3.641a5.824,5.824,0,0,0-.14-1.26,1.165,1.165,0,0,1,.326-.889.258.258,0,0,1,.234-.14,3.086,3.086,0,0,1,1.307,0c.187.047.373,0,.56.047l3.781.279a18.862,18.862,0,0,1,2.8.7c.326.14.326.185.326.513a.687.687,0,0,1-.047.327.637.637,0,0,0,.047.7c.047.047,0,.187,0,.328.047.466.093.932.14,1.447,0,.047.047.14.047.187-.047.14-.187.234-.14.279,0,.094.14.14.14.281.046.14.14.279.046.466a.558.558,0,0,0,.047.374q.141,1.121.281,2.241c.14,1.449.234,2.849.326,4.3.047.468-.047.981-.047,1.494,0,.373.094.747.094,1.121v1.588a10.78,10.78,0,0,1,.046,1.214c0,.654,0,1.307-.046,1.915,0,.42.046.84.046,1.307v.373c0,.095-.046.234-.046.327a6.615,6.615,0,0,1,0,1.354c-.094.84-.094,1.681-.187,2.522,0,.185.047.373-.094.513a.67.67,0,0,0-.14.513,6.091,6.091,0,0,1-.513,2.008,9.068,9.068,0,0,0-.515,1.354,5.719,5.719,0,0,1-.653,1.307,13.051,13.051,0,0,1-.981,1.447,3.271,3.271,0,0,1-1.027.934,8.142,8.142,0,0,1-1.681.841,9.7,9.7,0,0,1-3.269.653c-.7,0-1.4.047-2.1,0-.7,0-1.447-.14-2.194-.14-.934-.047-1.868-.047-2.8-.14a6.222,6.222,0,0,1-2.428-.795c-.466-.326-.934-.607-1.353-.934-.42-.374-.747-.794-1.12-1.168a2.114,2.114,0,0,0-.281-.326c-.093-.14-.187-.281-.281-.421a1.615,1.615,0,0,0-.374-.747,2.416,2.416,0,0,1-.279-.607,8.9,8.9,0,0,1-.234-.932,3.994,3.994,0,0,0-.234-1.075.7.7,0,0,1,0-.607c.047-.093-.046-.326-.14-.466-.046-.187-.187-.326-.046-.56v-.048c-.281-.232-.142-.605-.234-.887-.048-.14-.095-.234,0-.326.045-.047,0-.095,0-.14a2.719,2.719,0,0,1-.234-1.028c0-.467-.094-.887-.14-1.354-.094-.466-.047-.934-.187-1.4a6.481,6.481,0,0,1,0-1.354c0-.187-.095-.327-.095-.466-.047-1.215-.047-2.43-.093-3.642,0-.281-.094-.56.093-.84v-.094c-.279-.56-.047-1.168-.047-1.728a1.132,1.132,0,0,0,0-.56c-.046-.466.047-.934,0-1.4,0-.607.095-1.168.047-1.775,0-1.214,0-2.428.048-3.689a26.014,26.014,0,0,0,0-3.314,11.177,11.177,0,0,1-.048-1.26c0-.142.048-.234.048-.328A.905.905,0,0,1,194.608,201.07Z" transform="translate(-193.723 -200.249)" fill="#fff"/></g><g transform="translate(63.18 0.318)"><path d="M254.1,227.034v.606c.048.515-.047,1.075.048,1.589.047.7.093,1.354.093,2.054.047.56.047,1.167.047,1.728.047.232.047.467.093.747a.449.449,0,0,1-.466.606,2.258,2.258,0,0,0-.56-.046c-.607,0-1.215,0-1.867.046-1.355.094-2.755.188-4.11.281-.187.047-.326.047-.513.093-.421.141-.56.047-.607-.374a13.739,13.739,0,0,1-.234-2.381c-.046-1.495-.093-2.942-.093-4.436a20.189,20.189,0,0,1-.094-2.381c.094-.981,0-2.009.047-2.988.047-1.168,0-2.336-.047-3.5,0-.606.094-1.213.094-1.82-.047-.934-.094-1.821-.094-2.755a15.917,15.917,0,0,1-.047-2.1c0-.887.047-1.774.094-2.663,0-.747.047-1.494.047-2.194a1.288,1.288,0,0,0-.141-.934.762.762,0,0,1-.046-.56,8.316,8.316,0,0,1,.934-2.615,3.167,3.167,0,0,1,1.168-1.307c.185-.14.42-.187.513-.419,0-.047.046-.047.093-.095a4.554,4.554,0,0,0,1.121-.373c.187-.094.326.094.515-.14.093-.14.373-.14.606-.187a2.678,2.678,0,0,0,.56-.187,7.674,7.674,0,0,1,1.775-.187h1.214a13.834,13.834,0,0,1,3.409.326,13.36,13.36,0,0,1,2.662.747,8.175,8.175,0,0,0,1.494.56,1.4,1.4,0,0,1,.327.234,5.916,5.916,0,0,1,1.447,1.4,13.34,13.34,0,0,1,1.075,1.962.288.288,0,0,1,.045.187c-.093.14,0,.187.095.279.045.047.14.095.14.187a8.93,8.93,0,0,1,.42,1.494.413.413,0,0,0,.048.234,2.5,2.5,0,0,0,.185.374c-.233.14,0,.281-.046.421-.047.187.14.279.14.419.047.141-.14.281.094.373.046.374.093.795.14,1.168.046.468.046.889.093,1.307q.07.7.142,1.4a7.7,7.7,0,0,1,.046,1.026c0,.141-.046.281-.046.468a.064.064,0,0,0,0,.093,6.316,6.316,0,0,1,.093,2.288c-.047.56-.047,1.074-.047,1.634v.794c.047.653.047,1.354.094,2.008a9.981,9.981,0,0,0,.046,1.168,9.159,9.159,0,0,0,0,1.12,9.688,9.688,0,0,1,0,1.168c0,.981,0,1.961.047,2.942a4.518,4.518,0,0,0,.094,1.12c.047.187-.187.327-.047.513a1.493,1.493,0,0,1,.047.654,2.642,2.642,0,0,1,.047.607v.467a10.218,10.218,0,0,1,.093,1.681c-.047.607.047,1.168.047,1.774.046.281-.281.515-.56.515a8.178,8.178,0,0,0-1.074-.095l-3.362.142a6.634,6.634,0,0,1-1.915-.047,8.066,8.066,0,0,0-1.073,0,.342.342,0,0,1-.421-.421,3.333,3.333,0,0,0,0-1.354,1.393,1.393,0,0,1,.093-.607,3.431,3.431,0,0,0-.046-.979c0-.374-.047-.7-.047-1.074,0-.328-.047-.7-.047-1.075s.047-.793.047-1.166c0-.188-.047-.374-.047-.607v-1.215A12.6,12.6,0,0,0,254.1,227.034Zm3.875-9.246v-.234a3.07,3.07,0,0,0-.046-1.447.932.932,0,0,1,.046-.374.639.639,0,0,0,.187-.606c-.048-.467-.048-.935-.093-1.4-.048-.654.093-1.26,0-1.915s-.187-1.307-.328-1.961a7.9,7.9,0,0,0-.606-1.447,1.744,1.744,0,0,0-.747-.794,2.642,2.642,0,0,0-1.589-.187,2.124,2.124,0,0,0-.652.326c-.56.327-.515.934-.607,1.447a12.152,12.152,0,0,1-.048,1.307c0,.095-.045.142,0,.234.048.466.095.981.14,1.447.047.654.094,1.26.094,1.915.047.794.094,1.634.094,2.428,0,.327-.047.653-.047.981a3.819,3.819,0,0,1,.047,1.026,7.525,7.525,0,0,0,.046,1.028c.047.14.094.232.14.374.7-.048,1.354-.095,2.056-.142a7.914,7.914,0,0,0,2.1-.14A4.193,4.193,0,0,0,257.977,217.788Z" transform="translate(-245.713 -200.13)" fill="#fff"/></g><g transform="translate(92.657)"><path d="M298.168,234.268c-.654-.094-1.307-.047-1.962-.094a13.506,13.506,0,0,1-2.755-.466.644.644,0,0,1-.467-.655c-.047-1.026-.047-2.1-.047-3.173a17.141,17.141,0,0,1,0-2.2c0-.513.047-1.073.047-1.634s-.047-1.074-.047-1.634c-.047-1.028,0-2.054-.047-3.036,0-.513-.047-1.028-.047-1.541v-2.195c0-.607.047-1.213.047-1.82.047-.654.047-1.354.047-2.008,0-.889,0-1.775-.047-2.615,0-1.262-.095-2.522-.095-3.783,0-1.168.095-2.336.142-3.5,0-.653.047-1.306.047-1.961a1.285,1.285,0,0,0-.141-.607c-.093-.279-.093-.421.141-.56a.806.806,0,0,1,.327-.046c.092-.047.187,0,.232-.047a2,2,0,0,1,1.354-.281,11.857,11.857,0,0,0,1.822-.234c.513-.093,1.026-.14,1.54-.279a3.417,3.417,0,0,1,.654-.187c.56-.047,1.168-.093,1.726-.093.981.046,1.962.14,2.943.233a23.266,23.266,0,0,1,3.081.326,3.155,3.155,0,0,1,1.074.328,2.3,2.3,0,0,1,.936.513h.093a5.719,5.719,0,0,1,1.354.795,4.974,4.974,0,0,1,.794.653,6.516,6.516,0,0,1,.513.56,1.77,1.77,0,0,1,.466.56,17.189,17.189,0,0,1,.747,1.636,10.793,10.793,0,0,1,.327,2.1c0,.7.141,1.4.094,2.1a4.548,4.548,0,0,1,.047,1.121,7.459,7.459,0,0,0-.047,1.447c-.047.513-.047,1.028-.047,1.541v4.575a14.454,14.454,0,0,1-.047,1.448v1.167c-.046.607-.093,1.215-.14,1.868-.046.607-.14,1.215-.187,1.775-.047.187-.093.374-.14.56-.14.56-.187,1.168-.281,1.728a9.044,9.044,0,0,1-.606,2.521,17.775,17.775,0,0,1-.607,1.681,5.563,5.563,0,0,1-1.073,1.636,4.51,4.51,0,0,1-.56.419,8.583,8.583,0,0,1-1.4.842,8.29,8.29,0,0,1-1.867.419,27.234,27.234,0,0,1-2.849.374,9.648,9.648,0,0,1-1.166,0v.047C300.783,234.5,299.476,234.408,298.168,234.268Zm6.3-21.058c-.047-.328-.14-.7-.187-1.028a8.8,8.8,0,0,0-.747-2.894,2.567,2.567,0,0,0-.84-1.028,4.037,4.037,0,0,0-2.2-.653c-.419,0-.513.093-.513.513v1.307a4.72,4.72,0,0,0-.047,1.4.592.592,0,0,1-.047.28c0,.373-.14.747,0,1.026a2.332,2.332,0,0,1,.047.794c.047.889.047,1.728.047,2.568,0,.421-.047.841-.047,1.262,0,.979.095,1.915,0,2.894a7.511,7.511,0,0,1,.047,2.054,12.007,12.007,0,0,1,.095,1.822,9.624,9.624,0,0,1,0,1.634,12.561,12.561,0,0,1,.093,1.354c.047.419.047.466.513.513a2.063,2.063,0,0,0,.515-.048l1.54-.281a3.743,3.743,0,0,0,1.448-.653c.559-.421.513-1.074.653-1.634a7.163,7.163,0,0,0,.047-1.728,10.184,10.184,0,0,0,0-1.681c-.047-.047,0-.14,0-.234,0-.14.047-.232.047-.374a.962.962,0,0,1-.047-.513c.093-.513-.187-.981-.047-1.494.047-.048,0-.093,0-.14a9.483,9.483,0,0,1-.187-2.288c-.092-.513-.047-1.074-.092-1.589a11.18,11.18,0,0,0-.142-1.166Z" transform="translate(-292.787 -199.622)" fill="#fff"/></g></g></g><g transform="translate(88.978 228.885)"><g transform="translate(0 0)"><g transform="translate(18.182 17.512)"><path d="M131.27,323.248c-.194-.978-.386-1.957-.515-2.935a2.8,2.8,0,0,0-.711-1.59,1.436,1.436,0,0,0-1.161-.49H126.43c-.517,0-.775.245-.646.734,0,.122.065.244,0,.368-.386.795,0,1.651-.258,2.507a3.762,3.762,0,0,0,0,1.466,10.441,10.441,0,0,0,0,1.406,3.314,3.314,0,0,1,0,1.59,5.359,5.359,0,0,0-.193,1.773,11.731,11.731,0,0,1-.193,2.568,8.879,8.879,0,0,0,.064,1.835c0,.182.065.366.322.366a5.6,5.6,0,0,0,1.3.2,2.94,2.94,0,0,0,.311-.016,8.241,8.241,0,0,0,3.1-1.162,2.872,2.872,0,0,0,1.162-1.284,6.708,6.708,0,0,0,.194-1.957c.065-.734,0-1.466,0-2.262A12.8,12.8,0,0,0,131.27,323.248Z" transform="translate(-125.096 -318.234)" fill="#d9000d"/></g><g transform="translate(50.297 17.105)"><path d="M183.031,333.7c-.064-1.59-.064-3.179-.129-4.769-.063-1.1-.128-2.14-.192-3.24,0-.979-.13-2.017-.194-3.363a12.1,12.1,0,0,0-.452-2.689,2.881,2.881,0,0,0-1.936-1.957,1.052,1.052,0,0,0-.466-.1,1.978,1.978,0,0,0-.372.041,4.077,4.077,0,0,0-1.807,1.039,1.666,1.666,0,0,0-.517.917,8.444,8.444,0,0,0-.258,1.344c-.064.918-.193,1.9-.193,2.813-.065.918-.065,1.9-.13,2.874v.978c0,.673.065,1.345.065,2.017v.979c0,.49-.065.978-.065,1.406,0,1.528.065,3.056.065,4.585a3.381,3.381,0,0,0,.258.856.911.911,0,0,1,.194.674,17.912,17.912,0,0,0,.194,1.957,23.25,23.25,0,0,0,.58,2.261c.064.183.129.428.258.49a5.416,5.416,0,0,0,1.555.376c.063,0,.125,0,.187-.009a5.247,5.247,0,0,0,1.807-.795c.775-.428.967-1.284,1.484-1.9v-.182c.064-.428.064-.857.129-1.284a5.774,5.774,0,0,0,.129-1.04v-1.039a5.538,5.538,0,0,0,0-1.04C183.225,335.171,183.1,334.438,183.031,333.7Z" transform="translate(-176.384 -317.584)" fill="#d9000d"/></g><g transform="translate(148.923 17.512)"><path d="M340.062,323.248c-.194-.978-.386-1.957-.515-2.935a2.8,2.8,0,0,0-.711-1.59,1.436,1.436,0,0,0-1.161-.49h-2.452c-.517,0-.775.245-.646.734,0,.122.065.244,0,.368-.386.795,0,1.651-.258,2.507a3.762,3.762,0,0,0,0,1.466,10.439,10.439,0,0,0,0,1.406,3.314,3.314,0,0,1,0,1.59,5.359,5.359,0,0,0-.193,1.773,11.732,11.732,0,0,1-.193,2.568,8.877,8.877,0,0,0,.064,1.835c0,.182.065.366.322.366a5.6,5.6,0,0,0,1.3.2,2.94,2.94,0,0,0,.311-.016,8.241,8.241,0,0,0,3.1-1.162,2.872,2.872,0,0,0,1.162-1.284,6.709,6.709,0,0,0,.194-1.957c.065-.734,0-1.466,0-2.262A12.8,12.8,0,0,0,340.062,323.248Z" transform="translate(-333.888 -318.234)" fill="#d9000d"/></g><path d="M269.979,336.914l-.005-.053c.054-.931.054-1.816.054-2.608v-.367a6.17,6.17,0,0,0-.109-1.15c-.105-.545-.211-1.1-.249-1.455a6.089,6.089,0,0,0-.128-.749,8.155,8.155,0,0,1-.133-.873,7.985,7.985,0,0,0-.972-2.986,6.376,6.376,0,0,0-1.448-2.421,8.911,8.911,0,0,0,.52-1.071c.13-.21.257-.426.376-.651.061-.114.117-.23.17-.348a10.526,10.526,0,0,0,.655-2.014l.038-.159c.037-.123.055-.195.084-.319.066-.281.123-.573.178-.869.019-.1.036-.205.059-.307a6.126,6.126,0,0,0,.313-1.934v-.006a6.331,6.331,0,0,0,.214-1.928,7.4,7.4,0,0,0,.181-2.013,6.193,6.193,0,0,0,.057-.82c0-.113.012-.228.019-.339.025-.371.044-.731.044-1.067V310.1c.023-.26.039-.521.055-.781.009-.157.015-.313.033-.47s.029-.3.035-.453c.021-.183.046-.413.06-.683a7.055,7.055,0,0,0-.046-1.972,11.411,11.411,0,0,0-.254-3.183,6.4,6.4,0,0,0-.116-.916,6.134,6.134,0,0,0-.164-.869l-.034-.143a9.553,9.553,0,0,0-1.086-2.816,9.848,9.848,0,0,0-2.442-3.168l-.033-.031a8.79,8.79,0,0,0-3.441-2.116,9.563,9.563,0,0,0-1.606-.678q-.333-.105-.677-.178c-.124-.026-.252-.056-.381-.087a16.986,16.986,0,0,0-2.142-.394c-.163-.017-.458-.071-.744-.122a18.884,18.884,0,0,0-2.727-.341,16.884,16.884,0,0,0-2.669-.339c-.183-.012-.367-.021-.551-.043a7.29,7.29,0,0,0-.843-.049,12.053,12.053,0,0,0-1.549.11q-.261-.008-.522-.008a28.951,28.951,0,0,0-4.348.4c-.523.077-1.018.15-1.45.194-.908.06-1.735.175-2.469.276-.243.034-.487.068-.729.1-.052,0-.106,0-.16,0h-.258c-.441,0-.985,0-1.6.048-.171.009-.343.013-.514.018a15.963,15.963,0,0,0-3.591.415,9.205,9.205,0,0,0-1.26.407c-.111-.059-.213-.128-.329-.182a6.942,6.942,0,0,0-.852-.336,8.784,8.784,0,0,0-2.759-.4q-.216,0-.431.013c-.133,0-.265-.011-.4-.018-.391-.021-.783-.038-1.174-.038a12.4,12.4,0,0,0-1.668.108q-.287.039-.571.1a12.833,12.833,0,0,1-1.379.145c-.3.009-.568.028-.806.05a8.966,8.966,0,0,0-2.38-.309q-.155,0-.31,0c-.628-.044-1.3-.081-2.008-.081-.347,0-.675.009-1,.026-.4,0-.81.019-1.221.035-.311.012-.621.025-.919.025-.108,0-.215,0-.322.008a9.1,9.1,0,0,0-1.179-.167,9.755,9.755,0,0,0-1.016-.051c-.255,0-.512.01-.767.024l-.078,0a6.848,6.848,0,0,0-5.765,3.179,6.611,6.611,0,0,0-.471-.574,6.936,6.936,0,0,0-3.838-1.912,7.844,7.844,0,0,0-.941-.125c-.143-.013-.286-.031-.428-.047a19.37,19.37,0,0,0-2.046-.154c-1.463-.062-2.813-.062-4.121-.062-.656,0-1.234.045-1.7.081-.277.021-.538.041-.688.041a8.456,8.456,0,0,0-6.608,2.678c-.137-.167-.255-.346-.41-.5a6.936,6.936,0,0,0-3.838-1.912,7.826,7.826,0,0,0-.941-.125c-.143-.013-.285-.031-.428-.047a19.37,19.37,0,0,0-2.047-.154c-1.462-.062-2.813-.062-4.121-.062-.656,0-1.234.045-1.7.081-.277.021-.538.041-.69.041a8.469,8.469,0,0,0-6.524,2.592c-.076-.068-.142-.138-.22-.2-.095-.081-.192-.159-.292-.235a11.247,11.247,0,0,0-3.5-1.721c-.073-.023-.145-.045-.216-.07a11.713,11.713,0,0,0-4.608-.973c-.333,0-.678-.013-1.03-.025-.532-.018-1.073-.035-1.616-.035s-1.066.029-1.542.068c-.1,0-.193-.006-.291-.006a7.018,7.018,0,0,0-.733.039c-.11.012-.221.018-.332.026a15.614,15.614,0,0,0-1.962.237c-.52.091-1.03.2-1.537.31-.46.1-.895.2-1.174.226-.093.011-.187.023-.279.037a15.522,15.522,0,0,0-7.441,3.453c-.025.02-.044.041-.068.061a8.539,8.539,0,0,0-.771-.745l-.033-.031a8.79,8.79,0,0,0-3.441-2.116,9.562,9.562,0,0,0-1.606-.678q-.333-.105-.677-.178c-.124-.026-.252-.056-.381-.087a16.984,16.984,0,0,0-2.142-.394c-.163-.017-.458-.071-.744-.122a18.884,18.884,0,0,0-2.727-.341,16.883,16.883,0,0,0-2.669-.339c-.183-.012-.367-.021-.551-.043a7.29,7.29,0,0,0-.843-.049,12.054,12.054,0,0,0-1.549.11q-.261-.008-.522-.008a28.951,28.951,0,0,0-4.348.4c-.523.077-1.018.15-1.45.194-.908.06-1.735.175-2.469.276-.243.034-.487.068-.729.1-.052,0-.106,0-.16,0H107.9c-.441,0-.985,0-1.6.048-.171.009-.343.013-.514.018a15.963,15.963,0,0,0-3.591.415,7.574,7.574,0,0,0-6.033,6.585,6.136,6.136,0,0,0,.51,3.155c0,.254.013.495.021.723s.018.483.018.73c0,.487.007.966.015,1.44.013.756.024,1.473,0,2.108a8.952,8.952,0,0,0-.094,1.274,14.175,14.175,0,0,0-.192,2.068c-.005.141-.006.282-.019.423q-.05.286-.073.575c-.039.483-.06.984-.08,1.5-.013.342-.025.689-.051,1.037-.081,1.168-.081,2.271-.081,3.336,0,.322.008.644.016.964.008.291.019.689.006.829a19.245,19.245,0,0,0,0,3.291c0,.054.009.108.016.161a8.96,8.96,0,0,0-.035,1.869,6.1,6.1,0,0,0-.021,1.637,23.787,23.787,0,0,1,.09,2.961c0,.333-.006.668-.006,1.006v.734c0,.255.008.52.018.788,0,.108.011.218.011.326,0,.036-.006.072-.009.108a20.041,20.041,0,0,0,.05,3.242c.011.332.036.611.054.811l0,.038c0,.1-.006.2-.009.3a15.04,15.04,0,0,0,.044,2.112c.1.91.1,2,.1,3.157a6.1,6.1,0,0,0,.054.815,7.673,7.673,0,0,0-.054.9,6.865,6.865,0,0,0,6.256,6.855,15.63,15.63,0,0,0,2.444.19,18.619,18.619,0,0,0,3.089-.269,4.138,4.138,0,0,1,.607-.031c.356,0,.712.015,1.068.028.534.02,1.067.038,1.6.038q.258,0,.515-.018c.331-.024.661-.034.991-.047.512-.018,1.024-.039,1.537-.076.108-.008.216-.018.324-.031a7.936,7.936,0,0,0,2.991-.966,7.151,7.151,0,0,0,3.58.955h1.421c.111,0,.224,0,.336-.008,1.121-.053,2.242-.106,3.321-.158.271.036.639.081,1.073.1.555.038,1.036.038,1.432.038h.232c.077,0,.155,0,.232.006.2.018.4.025.6.025h.235c.07,0,.14,0,.209.005s.152.018.228.026c.282.027.555.039.82.039a7.844,7.844,0,0,0,5.512-2.181,7.322,7.322,0,0,0,2.351,1.2q.3.1.605.172l.473.113c.9.217,1.834.44,2.879.629a21.217,21.217,0,0,0,4.111.43c.106,0,.214,0,.32-.007.2-.009.391-.011.584-.011.239,0,.478,0,.715.007.3,0,.6.008.9.008.8,0,1.475-.027,2.124-.086.106-.009.212-.021.316-.036s.4-.024.617-.031c.492-.018,1.091-.039,1.792-.122a22.981,22.981,0,0,0,2.94-.484l.531-.111q.235-.048.465-.111l.182-.048a13.337,13.337,0,0,0,2.322-.8q.293-.138.57-.3c.312-.185.612-.381.905-.578.061-.041.122-.083.183-.123l.008,0a6.889,6.889,0,0,0,4.585,2.328,7.677,7.677,0,0,0,1.167.09q.261,0,.521-.019c1.516-.11,3.049-.167,4.673-.226l.1,0,.094,0c1.626-.058,3.161-.114,4.676-.114,1.924,0,3.744,0,5.641-.063a12.366,12.366,0,0,0,1.813-.185,7.036,7.036,0,0,0,2.09.525,7.663,7.663,0,0,0,1.167.09q.261,0,.521-.019c1.515-.11,3.049-.167,4.673-.226l.1,0,.094,0c1.626-.058,3.161-.114,4.675-.114,1.84,0,3.741,0,5.641-.063a12.66,12.66,0,0,0,2.165-.239,7.861,7.861,0,0,0,2.713.486h.452c.18,0,.361-.007.542-.021.8-.061,1.622-.136,2.45-.212.81-.075,1.628-.15,2.447-.21.327-.019.649-.046.969-.073.262-.023.532-.046.7-.051a8.065,8.065,0,0,0,1.3.105c.264,0,.536-.014.8-.037a7.162,7.162,0,0,0,.882-.1,5.542,5.542,0,0,1,.657-.023l.555.005c.236,0,.47.005.7.005.142,0,.3.021.45.034.453.039,1.017.088,1.679.088.68,0,1.29-.044,1.78-.08.285-.021.579-.042.738-.042a14.112,14.112,0,0,0,2.822-.3,7.827,7.827,0,0,0,3.405,1.326,15.63,15.63,0,0,0,2.444.19,18.619,18.619,0,0,0,3.089-.269,4.138,4.138,0,0,1,.607-.031c.356,0,.712.015,1.068.028.534.02,1.067.038,1.6.038q.258,0,.515-.018c.331-.024.661-.034.991-.047.512-.018,1.024-.039,1.537-.076.108-.008.216-.018.324-.031a7.936,7.936,0,0,0,2.991-.966,7.151,7.151,0,0,0,3.58.955h1.421c.111,0,.224,0,.336-.008,1.121-.053,2.242-.106,3.321-.158.271.036.639.081,1.073.1.555.038,1.036.038,1.432.038H260c.077,0,.155,0,.232.006.2.018.4.025.6.025h.235c.07,0,.14,0,.209.005s.152.018.228.026c.282.027.555.039.82.039a7.46,7.46,0,0,0,7.7-7.369c0-.121.012-.252.02-.383.024-.389.045-.78.045-1.147A13.966,13.966,0,0,0,270,339.1,10.915,10.915,0,0,0,269.979,336.914Z" transform="translate(-96.06 -290.268)" fill="#d9000d"/></g><g transform="translate(6.804 6.446)"><path d="M106.99,302.885a1.073,1.073,0,0,1,.967-.978,15.471,15.471,0,0,1,2.9-.244c.711-.062,1.484,0,2.195-.062,1.033-.122,2.065-.306,3.1-.366a37.414,37.414,0,0,1,5.872-.55c.451,0,.967-.122,1.419-.122a13.45,13.45,0,0,1,3.1.428h.194a22.59,22.59,0,0,1,3.484.427c.58.061,1.227.245,1.807.368.387.122.709.366,1.033.488a.342.342,0,0,0,.258.123c.646.06.969.55,1.42.917a4.266,4.266,0,0,1,.967,1.406,4.437,4.437,0,0,1,.516,1.467c0,.123-.129.183-.129.245v.182c.322,0,.194.184.194.306a7.734,7.734,0,0,1,.257,2.446c0,.182-.064.366-.064.55s-.065.366.064.488c.194.244.065.49.065.734,0,.306-.065.55-.065.856-.064.55-.064,1.1-.129,1.651v.612c0,.428-.063.917-.063,1.406a2.487,2.487,0,0,0-.065.978,2.122,2.122,0,0,1-.129.917,4.939,4.939,0,0,0-.065.978c0,.122.065.244,0,.306a3.854,3.854,0,0,0-.193,1.467v.122a16.179,16.179,0,0,0-.388,1.712,10.361,10.361,0,0,1-.386,1.346,8.31,8.31,0,0,0-.581,1.038,14.379,14.379,0,0,1-1.1,1.9c-.064.244-.322.427-.516.611-.58.55-1.162,1.162-1.742,1.651a8.246,8.246,0,0,1-1.678.856,7.978,7.978,0,0,0,.9.184,7.13,7.13,0,0,1,3.161,1.039,10.371,10.371,0,0,1,1.679,1.652c.065.672.646,1.1.709,1.773a13.747,13.747,0,0,0,.258,1.59c.065.611.193,1.283.322,1.956v.367c0,.856,0,1.712-.064,2.568a7.5,7.5,0,0,1,0,2.079v.244a11.388,11.388,0,0,1,.129,1.466c0,.49-.065,1.04-.065,1.53a.857.857,0,0,1-1.033.917,9.922,9.922,0,0,0-1.355-.062c-.709-.06-1.42,0-2.129-.06-.386,0-.838-.122-1.29-.122-1.227.06-2.517.122-3.807.182H125.51c-.064,0-.194-.122-.258-.182a.494.494,0,0,1,0-.428c.129-.978-.065-1.9,0-2.874a12.51,12.51,0,0,0-.193-2.139,5.046,5.046,0,0,1-.064-.978,7.372,7.372,0,0,0-.775-3.547,3.467,3.467,0,0,0-1.871-1.651,6.085,6.085,0,0,0-3.615.06.4.4,0,0,0-.322.428,11.527,11.527,0,0,0,.065,1.529,22.284,22.284,0,0,1,0,2.935,8.729,8.729,0,0,0,.064,1.834c0,1.04-.064,2.078-.064,3.118a7.069,7.069,0,0,0,.129,1.162c.064.488,0,.733-.517.795-.838.061-1.677.061-2.517.122a26.968,26.968,0,0,0-4.451.061,9.934,9.934,0,0,1-3.292.061c-.451-.061-.517-.061-.517-.488,0-.306.13-.672.13-1.04a2.984,2.984,0,0,0-.13-.673,36.626,36.626,0,0,0-.129-3.791,18.748,18.748,0,0,1,0-1.895c0-.306-.064-.673-.064-1.039a15.491,15.491,0,0,1-.065-2.445,15.014,15.014,0,0,0,0-1.712v-.734a38.126,38.126,0,0,0-.129-4.707c.258-.673-.064-1.346.065-2.079a4.749,4.749,0,0,0,0-1.346,13.121,13.121,0,0,1,0-2.262c.064-.733,0-1.529,0-2.323,0-.978,0-1.956.064-2.873.065-.856.065-1.712.129-2.507a16.522,16.522,0,0,1,.388-3.118c-.193-.428,0-.918,0-1.345.064-1.284,0-2.568,0-3.913a18.252,18.252,0,0,1,.064-3.24c0-.122-.064-.306-.064-.428C107.377,303.069,107.183,303.007,106.99,302.885Zm17.487,13.757c-.194-.978-.386-1.957-.515-2.935a2.8,2.8,0,0,0-.711-1.59,1.436,1.436,0,0,0-1.161-.49h-2.452c-.517,0-.775.245-.646.734,0,.122.065.244,0,.368-.386.795,0,1.651-.258,2.507a3.762,3.762,0,0,0,0,1.467,10.436,10.436,0,0,0,0,1.406,3.314,3.314,0,0,1,0,1.59,5.358,5.358,0,0,0-.193,1.773,11.73,11.73,0,0,1-.193,2.568,8.879,8.879,0,0,0,.064,1.835c0,.182.065.366.322.366a4.688,4.688,0,0,0,1.614.183,8.241,8.241,0,0,0,3.1-1.162,2.872,2.872,0,0,0,1.162-1.284,6.708,6.708,0,0,0,.194-1.957c.065-.734,0-1.466,0-2.262A12.8,12.8,0,0,0,124.477,316.642Z" transform="translate(-106.925 -300.562)" fill="#fff"/></g><g transform="translate(40.424 7.118)"><path d="M175.46,301.636c.9,0,1.806.061,2.646.061a4.646,4.646,0,0,1,1.871.428,9.738,9.738,0,0,1,2.194.918A10.225,10.225,0,0,1,183.849,305c.258.306.323.733.775.979.064,0,.064.122.129.244a9.877,9.877,0,0,1,1.1,3,2.81,2.81,0,0,0,.388.917c.128.244-.065.55.192.794.259.184.129.55.259.857s0,.612.064.917a1.436,1.436,0,0,1,0,1.039c-.064.184.194.428.194.673.064.673.129,1.406.194,2.08.064.855.129,1.651.192,2.507,0,.673-.063,1.283-.063,1.957a8.677,8.677,0,0,0,.192,1.283,10.812,10.812,0,0,1,.065,1.468c.064.917.194,1.834.258,2.751.065,1.162.065,2.262.065,3.425.064,1.1.064,2.139.064,3.239,0,.8.129,1.652.065,2.508,0,.489-.194.979-.194,1.529a20.663,20.663,0,0,1-.838,3.852,14.252,14.252,0,0,1-1.033,2.568,5.583,5.583,0,0,1-2,2.017c-.515.245-.967.612-1.484.918a8.817,8.817,0,0,1-1.354.428,22.158,22.158,0,0,1-2.776.488c-.9.122-1.742.061-2.646.183-1.354.122-2.646,0-4,.061a14.333,14.333,0,0,1-2.775-.3c-1.033-.183-2-.428-3.033-.673-.128-.061-.322-.061-.388-.183a12.69,12.69,0,0,1-1.677-1.468,5.481,5.481,0,0,1-.9-1.713,12.987,12.987,0,0,1-.838-2.689c-.259-.918-.517-1.835-.84-2.753-.129-.488-.321-.916-.451-1.406-.064-.3-.129-.55.194-.795.128-.061.128-.306.128-.428q-.095-1.284-.192-2.567a55.748,55.748,0,0,1-.259-5.687c.065-1.284.065-2.629.065-3.913.064-1.039.064-2.079.064-3.117,0-.428.065-.918.065-1.346,0-.366-.065-.734-.065-1.038,0-.918.065-1.835.065-2.753.065-.794.065-1.651.129-2.507a12.061,12.061,0,0,1,.322-1.466,18.857,18.857,0,0,1,.9-2.691,11.929,11.929,0,0,1,1.291-2.323,11.335,11.335,0,0,1,1.1-1.346,8.64,8.64,0,0,1,4.13-2.017c1.1-.122,2.129-.428,3.227-.612a16.946,16.946,0,0,1,1.742-.183v.061C174.3,301.7,174.879,301.636,175.46,301.636Zm.709,12.045a2.881,2.881,0,0,0-1.936-1.957,1.276,1.276,0,0,0-.838-.061,4.077,4.077,0,0,0-1.807,1.039,1.666,1.666,0,0,0-.517.917,8.446,8.446,0,0,0-.258,1.344c-.064.918-.193,1.9-.193,2.813-.065.918-.065,1.9-.13,2.874v.978c0,.673.065,1.345.065,2.017v.979c0,.49-.065.978-.065,1.406,0,1.528.065,3.056.065,4.585a3.382,3.382,0,0,0,.258.856.911.911,0,0,1,.194.674,17.906,17.906,0,0,0,.194,1.957,23.247,23.247,0,0,0,.58,2.261c.064.183.129.428.258.49a4.474,4.474,0,0,0,1.742.366,5.247,5.247,0,0,0,1.807-.795c.775-.428.967-1.284,1.484-1.9v-.182c.064-.428.064-.857.129-1.284a5.772,5.772,0,0,0,.129-1.04v-1.039a5.538,5.538,0,0,0,0-1.04c0-.734-.129-1.466-.194-2.2-.064-1.59-.064-3.179-.129-4.769-.063-1.1-.128-2.14-.192-3.24,0-.979-.13-2.017-.194-3.363A12.1,12.1,0,0,0,176.169,313.681Z" transform="translate(-160.617 -301.636)" fill="#fff"/></g><g transform="translate(71.722 7.669)"><path d="M212.148,302.637c.84,0,1.614-.122,2.388-.122,1.292,0,2.582,0,3.937.06.709,0,1.42.123,2.129.184.129,0,.194.061.388.061-.065,1.345-.193,2.629-.259,3.913a1.14,1.14,0,0,0-.323.122.183.183,0,0,1,.065.122c.194.184.323.306.194.612-.129.489.129.979.129,1.467a6.1,6.1,0,0,0,.063,1.529,5.673,5.673,0,0,1,.13,1.039,7.947,7.947,0,0,1,.129,1.223.636.636,0,0,1-.129.366c.129.245.322.55.258.734-.194.428.064.795.064,1.162.065.366.194.672,0,.978v.183c.065.368.13.673.194,1.039v2.079c0,.366.129.734.129,1.1a5.358,5.358,0,0,1,.065,2.262c.192.49-.323.978.128,1.468-.193.672.129,1.344-.193,2.017a.628.628,0,0,0,.065.306c0,.062.063.122.063.184-.128,1.344.065,2.629,0,3.913a10.932,10.932,0,0,0,.129,2.078,3.075,3.075,0,0,1,0,1.713c-.129.182-.064.426-.064.672-.065.673-.128,1.406-.193,2.139,1.1-.06,2.065-.182,3.1-.244q1.453-.09,3.1-.183a3.511,3.511,0,0,1,0,1.162,7.08,7.08,0,0,0,.065,1.651c.064.856.129,1.713.258,2.507.129,1.284.065,2.569.257,3.791a2.493,2.493,0,0,0,.129.673c0,.245-.129.368-.386.428a5.931,5.931,0,0,1-1.033.122c-1.807.061-3.613.061-5.485.061-1.677,0-3.356.062-5.034.122s-3.355.122-5.034.244c-.128,0-.257-.06-.515-.06,0-.306-.194-.612-.129-.918.258-.733-.065-1.466.129-2.2-.323-.488,0-1.038-.194-1.528-.064-.184.065-.489.065-.672-.065-.918-.194-1.895-.194-2.813a11.369,11.369,0,0,1,.129-1.466c.065-.428.129-.856.194-1.284a.349.349,0,0,0-.065-.244c-.322-.306-.129-.674-.129-1.04a.555.555,0,0,0,0-.55c-.064-.184.065-.366.129-.612,0-.306-.064-.672-.064-1.1,0-.306-.129-.611.064-.856.194-.183-.258-.244-.129-.55a9.725,9.725,0,0,0,.065-1.406,8.3,8.3,0,0,0-.065-1.772h0c.129-.612-.064-1.223.065-1.835a2.823,2.823,0,0,0,0-.734c.064-.428.064-.856.129-1.283a2.336,2.336,0,0,0,0-.674,4.945,4.945,0,0,1,.065-.978v-3.117q.1-1.284.193-2.569c0-.428.065-.916.065-1.344,0-.49-.065-.978-.065-1.468a10.334,10.334,0,0,1,0-1.406c0-.306-.064-.611-.064-.917,0-.245.064-.49.064-.8,0-.06.065-.182,0-.3,0-1.1-.064-2.262-.064-3.425-.065-.55-.065-1.1-.129-1.712a8.576,8.576,0,0,1-.13-1.283,2.3,2.3,0,0,0-.387-1.468A1.653,1.653,0,0,1,212.148,302.637Z" transform="translate(-210.599 -302.515)" fill="#fff"/></g><g transform="translate(92.501 7.669)"><path d="M245.333,302.637c.838,0,1.613-.122,2.386-.122,1.292,0,2.582,0,3.937.06.709,0,1.419.123,2.128.184.129,0,.194.061.388.061-.065,1.345-.194,2.629-.259,3.913a1.119,1.119,0,0,0-.321.122.185.185,0,0,1,.064.122c.193.184.322.306.193.612-.128.489.129.979.129,1.467a6.076,6.076,0,0,0,.064,1.529,5.673,5.673,0,0,1,.13,1.039,7.947,7.947,0,0,1,.129,1.223.636.636,0,0,1-.129.366c.129.245.322.55.258.734-.194.428.064.795.064,1.162.065.366.194.672,0,.978v.183c.065.368.129.673.194,1.039v2.079c0,.366.128.734.128,1.1a5.347,5.347,0,0,1,.065,2.262c.193.49-.323.978.129,1.468-.194.672.129,1.344-.194,2.017a.628.628,0,0,0,.065.306c0,.062.064.122.064.184-.129,1.344.065,2.629,0,3.913a10.932,10.932,0,0,0,.129,2.078,3.075,3.075,0,0,1,0,1.713c-.129.182-.064.426-.064.672-.065.673-.129,1.406-.194,2.139,1.1-.06,2.065-.182,3.1-.244q1.453-.09,3.1-.183a3.51,3.51,0,0,1,0,1.162,7.08,7.08,0,0,0,.065,1.651c.064.856.129,1.713.257,2.507.129,1.284.065,2.569.258,3.791a2.494,2.494,0,0,0,.129.673c0,.245-.129.368-.387.428a5.917,5.917,0,0,1-1.032.122c-1.808.061-3.615.061-5.486.061-1.677,0-3.355.062-5.033.122s-3.356.122-5.034.244c-.129,0-.258-.06-.515-.06,0-.306-.194-.612-.129-.918.258-.733-.065-1.466.129-2.2-.323-.488,0-1.038-.194-1.528-.064-.184.065-.489.065-.672-.065-.918-.194-1.895-.194-2.813a11.366,11.366,0,0,1,.129-1.466c.065-.428.129-.856.194-1.284a.349.349,0,0,0-.065-.244c-.322-.306-.129-.674-.129-1.04a.555.555,0,0,0,0-.55c-.064-.184.065-.366.129-.612,0-.306-.064-.672-.064-1.1,0-.306-.129-.611.064-.856.194-.183-.258-.244-.129-.55a9.727,9.727,0,0,0,.065-1.406,8.294,8.294,0,0,0-.065-1.772h0c.129-.612-.064-1.223.065-1.835a2.823,2.823,0,0,0,0-.734c.064-.428.064-.856.129-1.283a2.381,2.381,0,0,0,0-.674A4.942,4.942,0,0,1,244.3,323v-3.117q.1-1.284.193-2.569c0-.428.065-.916.065-1.344,0-.49-.065-.978-.065-1.468a10.436,10.436,0,0,1,0-1.406c0-.306-.063-.611-.063-.917,0-.245.063-.49.063-.8,0-.06.065-.182,0-.3,0-1.1-.063-2.262-.063-3.425-.065-.55-.065-1.1-.13-1.712a8.743,8.743,0,0,1-.129-1.283,2.3,2.3,0,0,0-.387-1.468A1.654,1.654,0,0,1,245.333,302.637Z" transform="translate(-243.783 -302.515)" fill="#fff"/></g><g transform="translate(113.316 7.335)"><path d="M289.959,336.493a28.576,28.576,0,0,1,3.227,0c.9.122,1.742.49,2.646.672.969.245.969.245.9,1.162,0,1.1,0,2.2.065,3.3a14.06,14.06,0,0,1,.192,1.711c0,.428-.063.918-.063,1.406a2.629,2.629,0,0,1,.063.306c.065.183.129.428.194.612.065.366-.065.55-.515.672a8.576,8.576,0,0,1-1.807.245c-.838,0-1.678.122-2.517.122-.709,0-1.42-.122-2.13-.122a18.3,18.3,0,0,0-3.162.122,2.276,2.276,0,0,1-.646,0,14.268,14.268,0,0,0-3.227.061c-1.678.122-3.355.306-4.968.428h-.452c-.388,0-.517-.184-.451-.49a10.722,10.722,0,0,0,.193-1.406c0-.795-.065-1.589-.13-2.384a11.06,11.06,0,0,1-.063-1.467,17.777,17.777,0,0,0-.065-1.834,7.8,7.8,0,0,1,0-1.222c-.064-1.162-.064-2.263-.064-3.363a13.674,13.674,0,0,0-.129-2.262,15,15,0,0,1,0-1.712c0-.673,0-1.406.064-2.139a8.908,8.908,0,0,1,.065-1.346v-1.712c0-.55.064-1.1.064-1.651,0-1.039.065-2.017.065-2.995a8.582,8.582,0,0,1-.129-1.284,16.574,16.574,0,0,0,.129-1.773c0-.552-.065-1.1-.065-1.652,0-.244.065-.488.065-.733,0-.184.063-.368,0-.49a13.247,13.247,0,0,1,0-2.262c.128-1.039.063-2.079.128-3.179a6.456,6.456,0,0,1,.129-1.1c0-.918.065-1.835.129-2.751,0-.612.065-1.224.065-1.835v-.672a1.811,1.811,0,0,1,.064-.612v-.856a7.34,7.34,0,0,1,1.162,0,11.2,11.2,0,0,1,1.226.244,4.914,4.914,0,0,0,.9-.06c.775,0,1.613-.062,2.388-.062a18.212,18.212,0,0,1,2.58.062,2.426,2.426,0,0,1,1.162.122c.969.488,1.872.122,2.84.122a18.622,18.622,0,0,0,2.582-.306c.9-.122,1.806.062,2.709,0a1.854,1.854,0,0,1,.581.062.488.488,0,0,1,.322.55c0,.55-.064,1.1-.064,1.651,0,.612-.065,1.223-.065,1.835,0,.428.065.794.065,1.162.064.611.064,1.223.129,1.833a.353.353,0,0,1-.065.245c-.257.122-.129.3-.064.428a.559.559,0,0,1,0,.55c-.065.061,0,.183,0,.306s.064.182.129.3c.064.245.193.55,0,.8-.257.244-.58.183-.969.183-.9-.061-1.806,0-2.646,0a13.767,13.767,0,0,1-1.613-.061c-.838-.061-1.742-.183-2.58-.306a1.94,1.94,0,0,0-.581.122,9.064,9.064,0,0,0-.259,2.934c0,.612,0,1.223-.063,1.9a2.469,2.469,0,0,0,0,1.528v.122c-.065.488-.065.917-.129,1.406a4.757,4.757,0,0,0,.838.122c.9.061,1.871.122,2.84.122.9.061,1.806.061,2.709.061a7.378,7.378,0,0,0,1.162.061.542.542,0,0,1,.517.673c-.065.734-.194,1.468-.258,2.2v2.813c0,.978.064,2.018.129,3a.533.533,0,0,0,.064.306c.065.55-.193.856-.773.794a30.087,30.087,0,0,0-4.066.062c-.386,0-.773-.062-1.162-.062h-1.613c-.515,0-.515.062-.515.55a11.925,11.925,0,0,0-.065,2.14c0,.795.129,1.529.065,2.262a9.254,9.254,0,0,0,0,1.344c0,.123.064.184.064.367Z" transform="translate(-277.025 -301.982)" fill="#fff"/></g><g transform="translate(137.544 6.446)"><path d="M315.782,302.885a1.073,1.073,0,0,1,.967-.978,15.472,15.472,0,0,1,2.9-.244c.711-.062,1.484,0,2.195-.062,1.033-.122,2.065-.306,3.1-.366a37.414,37.414,0,0,1,5.872-.55c.451,0,.967-.122,1.419-.122a13.45,13.45,0,0,1,3.1.428h.194a22.59,22.59,0,0,1,3.484.427c.58.061,1.227.245,1.807.368.387.122.709.366,1.033.488a.342.342,0,0,0,.258.123c.646.06.969.55,1.42.917a4.267,4.267,0,0,1,.967,1.406,4.437,4.437,0,0,1,.516,1.467c0,.123-.129.183-.129.245v.182c.322,0,.194.184.194.306a7.735,7.735,0,0,1,.257,2.446c0,.182-.064.366-.064.55s-.065.366.064.488c.194.244.065.49.065.734,0,.306-.065.55-.065.856-.064.55-.064,1.1-.129,1.651v.612c0,.428-.063.917-.063,1.406a2.487,2.487,0,0,0-.065.978,2.122,2.122,0,0,1-.129.917,4.939,4.939,0,0,0-.065.978c0,.122.065.244,0,.306a3.854,3.854,0,0,0-.193,1.467v.122a16.183,16.183,0,0,0-.388,1.712,10.358,10.358,0,0,1-.386,1.346,8.306,8.306,0,0,0-.581,1.038,14.382,14.382,0,0,1-1.1,1.9c-.064.244-.322.427-.516.611-.58.55-1.162,1.162-1.742,1.651a8.247,8.247,0,0,1-1.678.856,7.978,7.978,0,0,0,.9.184,7.132,7.132,0,0,1,3.161,1.039,10.371,10.371,0,0,1,1.679,1.652c.065.672.646,1.1.709,1.773a13.747,13.747,0,0,0,.258,1.59c.065.611.193,1.283.322,1.956v.367c0,.856,0,1.712-.064,2.568a7.5,7.5,0,0,1,0,2.079v.244a11.385,11.385,0,0,1,.129,1.466c0,.49-.065,1.04-.065,1.53a.857.857,0,0,1-1.033.917,9.922,9.922,0,0,0-1.355-.062c-.709-.06-1.42,0-2.129-.06-.386,0-.838-.122-1.29-.122-1.227.06-2.517.122-3.807.182H334.3c-.064,0-.194-.122-.258-.182a.494.494,0,0,1,0-.428c.129-.978-.065-1.9,0-2.874a12.51,12.51,0,0,0-.193-2.139,5.043,5.043,0,0,1-.064-.978,7.371,7.371,0,0,0-.775-3.547,3.467,3.467,0,0,0-1.871-1.651,6.085,6.085,0,0,0-3.615.06.4.4,0,0,0-.322.428,11.527,11.527,0,0,0,.065,1.529,22.282,22.282,0,0,1,0,2.935,8.731,8.731,0,0,0,.064,1.834c0,1.04-.064,2.078-.064,3.118a7.069,7.069,0,0,0,.129,1.162c.064.488,0,.733-.517.795-.838.061-1.677.061-2.517.122a26.968,26.968,0,0,0-4.451.061,9.934,9.934,0,0,1-3.292.061c-.451-.061-.517-.061-.517-.488,0-.306.13-.672.13-1.04a2.984,2.984,0,0,0-.13-.673,36.635,36.635,0,0,0-.129-3.791,18.748,18.748,0,0,1,0-1.895c0-.306-.064-.673-.064-1.039a15.5,15.5,0,0,1-.065-2.445,15.014,15.014,0,0,0,0-1.712v-.734a38.129,38.129,0,0,0-.129-4.707c.258-.673-.064-1.346.065-2.079a4.751,4.751,0,0,0,0-1.346,13.118,13.118,0,0,1,0-2.262c.064-.733,0-1.529,0-2.323,0-.978,0-1.956.064-2.873.065-.856.065-1.712.129-2.507a16.522,16.522,0,0,1,.388-3.118c-.193-.428,0-.918,0-1.345.064-1.284,0-2.568,0-3.913a18.252,18.252,0,0,1,.064-3.24c0-.122-.064-.306-.064-.428C316.169,303.069,315.975,303.007,315.782,302.885Zm17.487,13.757c-.194-.978-.386-1.957-.515-2.935a2.8,2.8,0,0,0-.711-1.59,1.436,1.436,0,0,0-1.161-.49H328.43c-.517,0-.775.245-.646.734,0,.122.065.244,0,.368-.386.795,0,1.651-.258,2.507a3.762,3.762,0,0,0,0,1.467,10.439,10.439,0,0,0,0,1.406,3.314,3.314,0,0,1,0,1.59,5.359,5.359,0,0,0-.193,1.773,11.732,11.732,0,0,1-.193,2.568,8.877,8.877,0,0,0,.064,1.835c0,.182.065.366.322.366a4.688,4.688,0,0,0,1.614.183,8.241,8.241,0,0,0,3.1-1.162,2.872,2.872,0,0,0,1.162-1.284,6.708,6.708,0,0,0,.194-1.957c.065-.734,0-1.466,0-2.262A12.8,12.8,0,0,0,333.269,316.642Z" transform="translate(-315.717 -300.562)" fill="#fff"/></g></g><g transform="translate(148.467 140.36)"><g transform="translate(0 0)"><path d="M246.134,161.376a2.416,2.416,0,0,0-.01-.329c.008-.2,0-.4-.007-.6l-.006-.663c0-.142-.008-.286,0-.425a4.348,4.348,0,0,0,0-.675l-.029-.366c-.011-.123-.024-.244-.024-.363a2.169,2.169,0,0,0-.023-.324c.009.062.016.126.018.137l.006-.25c0-.07,0-.138-.009-.208l-.036-.224a2.488,2.488,0,0,0-.065-.838,3.3,3.3,0,0,0-.086-.784,3.153,3.153,0,0,0-.169-.8,3,3,0,0,0-.116-.421c-.026-.131-.06-.26-.1-.383a3.631,3.631,0,0,0-.113-.415,4.493,4.493,0,0,0-.219-.632,4.172,4.172,0,0,0-.481-.865,3.32,3.32,0,0,0-.47-.66,2.764,2.764,0,0,0-.689-.7c-.047-.034-.1-.064-.145-.094s-.115-.072-.18-.109h0a3.418,3.418,0,0,0-.709-.431,3.252,3.252,0,0,0-.508-.274,2.462,2.462,0,0,0-.681-.249,2.262,2.262,0,0,0-.545-.1,3.692,3.692,0,0,0-.616-.112c.047.006.1.013.09.006-.082-.022-.185-.049-.309-.075a2.4,2.4,0,0,0-.549-.125,3.758,3.758,0,0,0-.575-.044,3.439,3.439,0,0,0-1.235.1,3.371,3.371,0,0,1-.434.059,4.321,4.321,0,0,0-1.727.584,2.336,2.336,0,0,0-.934-.552,2.7,2.7,0,0,0-.787-.111,2.44,2.44,0,0,0-.409.041c-.131,0-.263.013-.4.029l-.237.019c-.366.036-.711.031-1.064.059s-.713.028-1.073.072l-.059.022a2.4,2.4,0,0,0-2.046.772,2.323,2.323,0,0,0-2.119-.893,4.008,4.008,0,0,0-.408.053,3.457,3.457,0,0,1-.7.034l-.335,0a1.8,1.8,0,0,0-.235.013,4.406,4.406,0,0,0-1.019,0,2.5,2.5,0,0,0-.891.317,3.3,3.3,0,0,0-.353-.12c-.078-.016-.3-.043-.378-.05a2.4,2.4,0,0,0-.594-.047c-.277-.016-.552-.012-.822-.009l-.481,0a3.076,3.076,0,0,0-.4.01,2.41,2.41,0,0,0-1.118.076c-.1,0-.188,0-.268,0a2.717,2.717,0,0,0-.359-.053c-.194-.034-.384-.053-.572-.07l-.118,0a2.423,2.423,0,0,0-1.321-.014,2.245,2.245,0,0,0-1.15-.416,3.018,3.018,0,0,0-.719,0h-.027l-.247.013c-.147.006-.293.013-.5.033-.175.019-.358.024-.537.029l-.306.01a5.714,5.714,0,0,0-1.006.054,2.379,2.379,0,0,0-1.756.45,2.905,2.905,0,0,0-.584-.115c-.07-.006-.137-.009-.206-.009h-.106a2.239,2.239,0,0,0-.477-.053l-1.218-.06c-.08,0-.157.006-.219,0s-.121-.019-.181-.025l-.021,0a2.34,2.34,0,0,0-1.66.009,2.158,2.158,0,0,0-.337.183,2.22,2.22,0,0,0-1.356-.207c-.135.014-.263.035-.447.07l-.2.014c-.1,0-.188.009-.281.016h-.991l-.237-.034a2.45,2.45,0,0,0-1.884.509c-.038-.034-.078-.068-.119-.1a2.444,2.444,0,0,0-1.914-.485l-.063,0-.282-.014c-.058,0-.132-.013-.191-.013-.165-.016-.336-.031-.515-.031l-.947-.006a4.319,4.319,0,0,0-.722.006h-.212a2.844,2.844,0,0,1-.387-.006,2.655,2.655,0,0,0-1.341.163,2.257,2.257,0,0,0-1.465,2.335,2.5,2.5,0,0,0,.047.6l0,.365c0,.281.009.569-.015.856-.028.339-.026.679-.023,1.021,0,.165.006.327,0,.584,0,.123.006.254.019.53v.854c0,.108.008.216.019.336a8.128,8.128,0,0,0,.031,1.1c.012.146.025.292.025.437a4.615,4.615,0,0,0,.058.663c0,.234-.018.468-.034.7,0,.049,0,.1,0,.152l0,.3a5.317,5.317,0,0,1-.019.675c-.019.363-.021.726-.016.956l-.012.169a6.172,6.172,0,0,0-.009,1.048c-.007.056-.018.106-.019.121a4.8,4.8,0,0,0-.021,1.5l.013.138c-.006.083-.011.163-.013.245a3.042,3.042,0,0,0-.021.344,2.26,2.26,0,0,0,1.249,2.021,2.652,2.652,0,0,0,1.266.252c.272-.019.565-.021.83-.04l.194,0c.182,0,.363,0,.465-.01l1.136-.054a2.643,2.643,0,0,0,1.106-.237,2.237,2.237,0,0,0,1.207.35h.209c.05,0,.1,0,.152,0q.24-.018.481-.043l.334-.031c.341-.018.681-.019,1.023-.016.253,0,.5,0,.591,0a7.167,7.167,0,0,0,1.649.058c.08,0,.185.006.3,0a4.115,4.115,0,0,0,.631-.018,2.464,2.464,0,0,0,1.6-.82c.007.005.013.011.02.016a4.972,4.972,0,0,0,.607.419c.122.071.247.138.376.206.093.048.188.1.284.157.049.029.1.058.149.084a5.12,5.12,0,0,0,2.169.566c.152.012.329.025.55.025a5.406,5.406,0,0,0,.738-.051l.4-.064c.175-.027.348-.053.585-.1l.339-.081a2.58,2.58,0,0,1,.307-.066,4.341,4.341,0,0,0,1.441-.471c.141-.08.281-.157.329-.183a3.2,3.2,0,0,0,.826-.552,2.212,2.212,0,0,0,1.214.882,2.721,2.721,0,0,0,.921.142c.332,0,.688,0,.991-.023a5.1,5.1,0,0,1,.66-.019c.066.009.138.016.239.026a3.441,3.441,0,0,0,.934.109c.063,0,.177-.008.24-.012.144-.013.279-.026.541-.029.18-.01.362,0,.543,0l.384,0c.156,0,.317,0,.48-.011l.335-.007a2.453,2.453,0,0,0,2.023-1.064,2.347,2.347,0,0,0,.483.468,2.523,2.523,0,0,0,1.4.422l.2.008c.1,0,.21.008.334.008a4.537,4.537,0,0,0,.809-.068h.157a1.709,1.709,0,0,0,.324-.033,3.062,3.062,0,0,0,.952.01,8.032,8.032,0,0,0,1.466-.08c.066-.01.131-.022.214-.038a2.4,2.4,0,0,0,1.869-.592,2.446,2.446,0,0,0,.617-.845,2.409,2.409,0,0,0,1.031,1.374,2.522,2.522,0,0,0,1.922.221l1.23-.056.644-.018a2.359,2.359,0,0,0,1.024-.08,2.388,2.388,0,0,0,1.384.438c.05,0,.1,0,.152,0l1.224-.1a2.169,2.169,0,0,1,.356-.033c.433,0,1.063-.014,1.51-.035a2.454,2.454,0,0,0,2.495-2.222l.028-.249c.034-.307.065-.615.075-.922a3.859,3.859,0,0,0,.041-.534c0-.024,0-.047,0-.071a3.737,3.737,0,0,0,.034-.718,2.267,2.267,0,0,0,.041-.563c0-.075,0-.149,0-.224A6.105,6.105,0,0,0,246.134,161.376Zm-27.182-11.9c-.047,0-.118,0-.187.011h-.008A1.682,1.682,0,0,1,218.951,149.478Zm17.3,16.5c-.025-.048-.047-.1-.068-.145.023.048.046.1.071.142Z" transform="translate(-191.062 -148.894)" fill="#fff"/></g><g transform="translate(2.125 2.261)"><path d="M194.465,152.924a.6.6,0,0,1,.171-.057,5.7,5.7,0,0,0,.985.038c.114,0,.228-.019.341-.019.17,0,.322.019.493.019h.834c.189,0,.36.038.53.038.247.019.493.019.739.038a.262.262,0,0,0,.114-.038c.152-.038.247.038.247.171a2.4,2.4,0,0,0,.246.872c0,.019.019.019.019.038-.038.171.113.266.17.417a.517.517,0,0,1,.075.3c-.018.019.019.056.038.076.038.038.076.056.095.095a2.955,2.955,0,0,1,.228.569c.019.133.152.209.152.341,0,.019.038.038.038.056a7.182,7.182,0,0,0,.285.91c.038.1.075.171.113.266a1.818,1.818,0,0,1,.114.341.4.4,0,0,0,.095.246,2.049,2.049,0,0,1,.209.569,1.476,1.476,0,0,1,.057.284c.038.1.076.171.113.266.057.17.133.341.209.53a1.036,1.036,0,0,1,.037.209c0,.19.152.322.114.493a.145.145,0,0,0,.038.076.23.23,0,0,1,.076.227.657.657,0,0,0,.095.209,1.615,1.615,0,0,0,.284.607,1.1,1.1,0,0,0,.057-.55,4.125,4.125,0,0,1,0-.834c.019-.493.057-1,.076-1.516a4.361,4.361,0,0,0-.038-.493v-.644c-.019-.4-.038-.777-.076-1.156V155.6c0-.455-.019-.89-.038-1.345v-.721a1.092,1.092,0,0,0-.038-.265c-.076-.171.038-.265.171-.247l.4.057h1.251c.19-.019.379-.019.587-.038.171-.019.322-.056.493-.075.114-.019.171.019.19.132,0,.057.019.133.019.209,0,.227,0,.455.019.664,0,.265.019.512.019.758,0,.209,0,.417-.019.626a1.577,1.577,0,0,1,0,.3c0,.095.057.19.057.3a1.078,1.078,0,0,0,0,.246,1.4,1.4,0,0,1,.019.4.647.647,0,0,0-.019.189c0,.038-.019.076,0,.114a4.073,4.073,0,0,1,0,.833c0,.171.019.322.019.493,0,.284,0,.588.019.872.019.4,0,.8.019,1.175a2.454,2.454,0,0,1,0,.834.549.549,0,0,0,.019.246c.019.228-.038.455-.019.683a2.032,2.032,0,0,1-.019.587.859.859,0,0,1,.019.095,1.937,1.937,0,0,1,0,.664c-.019.057.019.113.019.17a3.441,3.441,0,0,1-.038.758.888.888,0,0,0,0,.227v1.024c0,.17-.019.322-.019.492s.038.322.038.493-.038.247-.209.266a3.371,3.371,0,0,1-.436,0c-.114.019-.227-.019-.341,0a4.632,4.632,0,0,1-1.251-.038c-.284-.019-.587-.019-.89-.019-.379,0-.758,0-1.137.019-.284.019-.569.056-.853.076h-.209c0-.114-.038-.19-.038-.284a8.216,8.216,0,0,0-.227-1.365,5.176,5.176,0,0,0-.133-.777c-.076-.208-.095-.416-.152-.625-.075-.284-.133-.588-.208-.891-.038-.19-.076-.36-.114-.549s-.076-.361-.114-.55c-.038-.152-.056-.322-.095-.474l-.4-1.421c-.132-.436-.246-.872-.379-1.307-.057-.247-.113-.512-.189-.758a.789.789,0,0,0-.076-.189v.625a1.974,1.974,0,0,1,.019.474,1.131,1.131,0,0,0-.019.36c0,.152.019.322.019.474a.528.528,0,0,1-.019.17.149.149,0,0,0,.019.152c0,.038,0,.114-.019.133-.076.057-.038.114-.038.17a1.707,1.707,0,0,1-.019.758,2.617,2.617,0,0,1-.038.55c0,.095-.056.189-.038.284a4.152,4.152,0,0,1-.038.682c0,.171.019.341.019.512.037.549.019,1.1.075,1.649,0,.113.038.246.038.379a1.284,1.284,0,0,1,0,.379,2.682,2.682,0,0,1,0,.549c.056.095,0,.209.038.322.019.113.038.227.057.36a.291.291,0,0,1-.246.095l-1.232.057c-.246.019-.492,0-.739.019-.265,0-.549.019-.815.038a.2.2,0,0,1-.095-.019c0-.076.019-.152.019-.227,0-.133.019-.265.019-.4a4.858,4.858,0,0,1-.038-1.175,2.76,2.76,0,0,0,.057-.682,5.33,5.33,0,0,1,.019-.948c0-.322,0-.644.019-.967a10.549,10.549,0,0,0,.019-1.1c.019-.284.038-.569.038-.853,0-.227-.058-.455-.058-.663,0-.493-.095-.986-.056-1.478a2.814,2.814,0,0,0-.019-.4v-.853c0-.17-.019-.359-.019-.53.019-.474-.019-.947.019-1.421s.019-.947.019-1.4a2.781,2.781,0,0,0-.038-.418.232.232,0,0,1,.038-.208A1,1,0,0,1,194.465,152.924Z" transform="translate(-194.455 -152.64)" fill="#d9000d"/><path d="M222.985,152.959c0,.1-.019.19-.019.284,0,.114.019.228.019.341.019.266.038.55.056.815.019.3.076.607.076.91a2.617,2.617,0,0,1,0,.664c-.019.019,0,.038,0,.076a.226.226,0,0,1,.019.152c0,.3-.019.607-.038.91v.341c-.019.379-.038.777-.057,1.175a6.226,6.226,0,0,1-.056,1.023c-.057.284-.019.569-.057.853-.038.4-.076.8-.133,1.194a6.158,6.158,0,0,1-.076.853c-.038.17-.038.322-.076.474a2.142,2.142,0,0,0-.038.493,5.26,5.26,0,0,1-.113.758.115.115,0,0,1-.019.076c-.114.209-.1.455-.209.664a.791.791,0,0,0-.1.379,2.408,2.408,0,0,1-.284.474c-.019.019-.019.095-.038.133a1.848,1.848,0,0,1-.568.512c-.152.076-.322.17-.493.265a2.031,2.031,0,0,1-.683.209c-.266.038-.512.114-.777.171-.3.057-.625.095-.929.152a4.268,4.268,0,0,1-.853-.019,2.673,2.673,0,0,1-1.137-.3c-.246-.152-.492-.265-.72-.4a4.4,4.4,0,0,1-.474-.341,2.034,2.034,0,0,1-.625-.644c-.038-.057-.114-.076-.152-.133a1.294,1.294,0,0,1-.246-.512c-.019-.133-.095-.266-.132-.417-.038-.19-.019-.4-.058-.607-.019-.095,0-.17-.019-.265a1.5,1.5,0,0,1-.038-.417,5.909,5.909,0,0,0-.019-.815.746.746,0,0,1,0-.208v-.284c.019-.114.095-.209.056-.361a1.012,1.012,0,0,1-.019-.341,2.568,2.568,0,0,0,.019-.379v-.8c0-.095.019-.209.019-.3,0-.284-.019-.55,0-.834s0-.55.038-.834c.038-.3,0-.625.019-.929.019-.4-.038-.815-.019-1.232a1.815,1.815,0,0,0-.019-.455c0-.076.019-.152.019-.247,0-.72.019-1.44.019-2.16a1.11,1.11,0,0,1,.038-.246.123.123,0,0,1,.19-.1,1.1,1.1,0,0,0,.55.114,3.488,3.488,0,0,0,.625.038l1.1.057a2.9,2.9,0,0,1,.4.057h.3c.208.019.227.057.189.266a1.691,1.691,0,0,0-.019.322c.019.171.038.36.058.531.019.4.056.8.076,1.193,0,.152.019.3.019.455l.056.682c.019.3.038.588.058.891,0,.076-.038.152-.019.208,0,.133.038.266.038.4.019.152.019.322.038.493a2.7,2.7,0,0,0,.019.379,8.359,8.359,0,0,1,.038,1.193,3.053,3.053,0,0,0,.019.721v.019c0,.246,0,.473-.019.7-.038.246-.019.493-.038.758a4.524,4.524,0,0,0,.076,1,.583.583,0,0,0,.493.493.888.888,0,0,0,.322.019.524.524,0,0,0,.455-.474c.038-.227.057-.436.1-.644.057-.512.038-1.024.095-1.517.038-.284.038-.549.057-.833a2.08,2.08,0,0,0-.019-.341c.019-.417.038-.815.056-1.213v-.834c.019-.227,0-.436.038-.663.057-.455,0-.89.038-1.346a3.835,3.835,0,0,1-.019-.474c.038-.284-.057-.549-.019-.833.019-.284-.019-.55-.019-.834s-.075-.569-.075-.853c-.019-.17.038-.227.209-.209a2.441,2.441,0,0,0,.833-.019,1.972,1.972,0,0,1,.474-.019c.341-.019.7-.019,1.043-.057.227-.019.455-.019.682-.038.076,0,.133-.019.209-.019.057,0,.114.019.19.019Z" transform="translate(-201.73 -152.504)" fill="#d9000d"/><path d="M237.036,154.25c0,.379-.038.758-.038,1.118a1.784,1.784,0,0,0,.076.777c.057.114-.1.266-.266.227a.859.859,0,0,0-.379,0,1.6,1.6,0,0,1-.3-.019c-.322,0-.644-.019-.985-.019a.788.788,0,0,0-.209-.038c-.152-.019-.285-.019-.417-.038a.421.421,0,0,0-.057.3c.019.19-.019.417-.019.626a.527.527,0,0,0,0,.246c.038.19-.076.379-.019.569,0,.038-.038.057-.038.095q.028.228.057.455a1.18,1.18,0,0,0,.266-.019,1.175,1.175,0,0,1,.36-.038c.265.038.53-.038.8.019a2.511,2.511,0,0,0,.531-.019,3.69,3.69,0,0,1,.455-.019.745.745,0,0,1,.19.057c0,.019.019.038.019.056-.038.341.019.7-.019,1.043-.019.227.019.474.019.7,0,.209-.019.4-.019.607,0,.019.019.056,0,.056-.1.114-.038.228,0,.341a.428.428,0,0,1,0,.265.065.065,0,0,0-.019.038c.114.133-.019.19-.076.247-.209,0-.4-.019-.607-.019l-.53.056a2.108,2.108,0,0,1-.341-.038,2.875,2.875,0,0,0-.569,0H234.4c.019.152-.038.3-.019.473a5.364,5.364,0,0,1,0,.55,6.919,6.919,0,0,0,.038.891c0,.095.057.113.133.113l1.346.057c.209.019.417.019.644.038.114.019.247.038.379.057.095.019.114.076.114.152,0,.3.019.606,0,.909a5.679,5.679,0,0,0,.056.8c0,.056-.019.113-.019.189v.114c.019.209.057.417.076.626a.187.187,0,0,1-.19.17c-.265,0-.55.019-.815.019-.341,0-.7-.019-1.043,0-.227,0-.436.019-.663.038a1.056,1.056,0,0,1-.417-.057,3.35,3.35,0,0,0-.436-.057,7.159,7.159,0,0,0-1.1,0c-.284.019-.587.019-.872.019a.591.591,0,0,1-.19-.019c-.132-.038-.132-.057-.132-.19-.019-.246,0-.493-.019-.739-.038-.587-.038-1.156-.019-1.743,0-.417-.038-.834-.038-1.251-.019-.266-.019-.512-.019-.758-.019-.246-.038-.473-.038-.72v-1.042c0-.152-.019-.322-.019-.474,0-.284.019-.569.019-.853,0-.246-.019-.512-.019-.758a4.606,4.606,0,0,1,0-.72c.019-.322.038-.644.038-.966.019-.436.076-.891.095-1.327.019-.19.019-.4.019-.606,0-.133-.019-.284-.019-.436-.019-.284-.038-.568-.057-.833a.631.631,0,0,0-.038-.322c-.038-.076.133-.189.227-.152a8.229,8.229,0,0,0,.947.133,1.788,1.788,0,0,1,.341.057,4.1,4.1,0,0,0,.683.038,1.018,1.018,0,0,0,.417,0,.214.214,0,0,0,.152-.057.2.2,0,0,1,.246-.038c.209.076.418-.019.626,0h.266c.322,0,.644-.019.967,0,.227,0,.455.038.663.057a1.1,1.1,0,0,1,.265.095C237,153.681,237.036,153.966,237.036,154.25Z" transform="translate(-208.164 -152.715)" fill="#d9000d"/><path d="M248.094,161.949c.038-.265.058-.549.095-.815.038-.3.076-.587.114-.872.038-.189.076-.4.114-.606.057-.379.095-.739.152-1.118.038-.17.076-.322.114-.493a5.235,5.235,0,0,0,.095-.53c.076-.4.133-.815.189-1.213.038-.4.1-.777.133-1.156a10.009,10.009,0,0,0,.114-1.061,2.036,2.036,0,0,0,.019-.588,1.056,1.056,0,0,1,.038-.341.154.154,0,0,1,.17-.152,8.282,8.282,0,0,0,.986-.056c.379,0,.758-.057,1.137-.057.266,0,.53-.038.815-.057a2.074,2.074,0,0,1,.341-.019.783.783,0,0,0,.208-.038.458.458,0,0,1,.152.019c.076.019.095.056.095.133-.056.3-.095.606-.132.909-.057.341-.114.7-.171,1.061-.056.322-.113.644-.189.967-.095.341-.152.7-.227,1.043-.057.246-.133.512-.19.758-.057.227-.1.455-.152.683-.076.3-.152.587-.227.89-.019.076-.038.152-.057.227-.076.341-.152.683-.209,1.024-.057.208-.1.417-.133.626a1.092,1.092,0,0,0-.095.265.116.116,0,0,0-.019.076,2.088,2.088,0,0,1-.114.493c-.076.322-.133.644-.209.948a5.32,5.32,0,0,1-.152.512,1.355,1.355,0,0,0-.133.474c0,.095-.076.17-.057.284a.918.918,0,0,1-.095.322c-.057.246-.152.473-.209.72-.057.227-.1.455-.17.682a1.863,1.863,0,0,0-.058.455.181.181,0,0,1-.227.209,1.694,1.694,0,0,0-.758.057,5.839,5.839,0,0,1-1.005.056,2.236,2.236,0,0,0-.359.019,4.633,4.633,0,0,1-.721-.038,2.059,2.059,0,0,0-.322.038,2.8,2.8,0,0,0-.55.038,5.263,5.263,0,0,1-.947.019c-.095.019-.152-.038-.17-.152.019-.019.019-.038.038-.057a.341.341,0,0,0,.076-.3c-.056-.379-.113-.739-.133-1.118-.019-.171-.038-.322-.056-.493a5.758,5.758,0,0,0-.171-.777c-.057-.322-.114-.644-.17-.947a10.2,10.2,0,0,0-.247-1.1,3.562,3.562,0,0,1-.133-.644c-.095-.493-.209-.986-.284-1.478a7.355,7.355,0,0,1-.171-.929c-.038-.266-.038-.53-.076-.8-.019-.266-.057-.53-.095-.777-.019-.095-.019-.17-.038-.265-.038-.209-.038-.418-.057-.645a2.244,2.244,0,0,0-.057-.322c-.038-.379-.095-.758-.151-1.137-.038-.247-.1-.493-.152-.74-.038-.227-.095-.455-.152-.682a.868.868,0,0,0-.1-.19c-.056-.133-.037-.19.114-.209a1.844,1.844,0,0,1,.455,0c.284.019.569,0,.853,0a6.463,6.463,0,0,0,1.042-.056,1.456,1.456,0,0,1,.265-.038c.133-.019.17.038.19.17a5.423,5.423,0,0,0,.095.55c.038.227.076.436.114.663,0,.057.038.038.038.057a.708.708,0,0,1,.075.17c.057.228.1.455.152.683a7.086,7.086,0,0,1,.246,1.1c.019.17.076.341.095.492.038.19.1.379.133.569s.095.379.133.569c.076.227.133.455.19.682.076.341.113.663.209.986.095.246.095.512.189.758.057.152.038.341.152.473.019.019,0,.057,0,.1.019.056,0,.113.057.17.038.019.038.095.057.133a3.718,3.718,0,0,1,.152.8s.019,0,.038.038C248.056,162.006,248.094,161.987,248.094,161.949Z" transform="translate(-212.59 -152.606)" fill="#d9000d"/><path d="M264.314,163.37c-.114,0-.208.038-.3.038v.361a4.7,4.7,0,0,1,.038.493,2.074,2.074,0,0,1,.019.341,1.5,1.5,0,0,1,.038.493,1.912,1.912,0,0,0,.038.569,1.257,1.257,0,0,0,.019.531c.019.057.019.113.057.152a.136.136,0,0,1-.019.17.143.143,0,0,1-.171.076,3.092,3.092,0,0,0-.417-.019c-.378.019-.758.019-1.137.038l-1.023.057a1.107,1.107,0,0,0-.228.076c-.113.038-.152,0-.171-.113-.037-.587-.056-1.175-.095-1.763v-.4a3.267,3.267,0,0,0-.056-.739,5.8,5.8,0,0,1-.019-.815v-.3c0-.17.019-.322.019-.493-.019-.189-.019-.379-.038-.569a.921.921,0,0,1,0-.227,6.289,6.289,0,0,0,0-1.194c0-.095.019-.189.019-.284a1.431,1.431,0,0,0,0-.493,1.286,1.286,0,0,1,0-.379,4.183,4.183,0,0,1,.019-.493,1.733,1.733,0,0,1,.056-.436,2.063,2.063,0,0,0,.038-.493,1.589,1.589,0,0,1,.038-.416.43.43,0,0,0,.019-.266c0-.247,0-.474.019-.7a7.721,7.721,0,0,1,.095-.948,4.533,4.533,0,0,1,.152-.72,3.662,3.662,0,0,1,.493-.929.4.4,0,0,1,.076-.095c.227-.152.436-.3.663-.455a2.042,2.042,0,0,1,.815-.247,4.433,4.433,0,0,0,.72-.113,2.067,2.067,0,0,1,.683-.019.694.694,0,0,1,.208.019c.056.019.133-.019.152.056,0,.019.038.019.057.019.246,0,.474.113.7.133a4.081,4.081,0,0,0,.663.113c.095.095.265,0,.341.133.227.038.379.209.569.284a3.4,3.4,0,0,1,.512.322c.056.019.114.076.189.114.133.095.171.247.285.341a2.615,2.615,0,0,1,.322.474,1.9,1.9,0,0,1,.266.473,2.708,2.708,0,0,1,.133.417,1.256,1.256,0,0,1,.075.284,2.188,2.188,0,0,1,.1.379c.019.1.076.19.1.3.018.189.132.36.132.549a3.351,3.351,0,0,1,.076.607,1.081,1.081,0,0,0,.075.549c0,.038.019.057,0,.076a3.494,3.494,0,0,0,.038.625,3.383,3.383,0,0,0,0,.436c0,.284.038.568.056.872a2,2,0,0,1,0,.341c-.019.322,0,.663,0,.985-.019.3.038.607,0,.929-.019.1.058.19,0,.3a6.773,6.773,0,0,1,.038,1.08c-.113.3.019.626-.076.929a.554.554,0,0,0,0,.3,2.1,2.1,0,0,1-.038.341c0,.379-.057.758-.095,1.137-.019.152-.1.19-.247.19-.474.019-.947.038-1.4.038a5.45,5.45,0,0,0-.967.076l-.872.057c-.076,0-.133-.038-.133-.114a1.038,1.038,0,0,1,0-.417.6.6,0,0,0,.019-.265c0-.531-.019-1.043-.038-1.554,0-.379.019-.758.038-1.137A13.265,13.265,0,0,0,264.314,163.37Zm1.895-3.753c.019-.341,0-.682.019-1.023a8.973,8.973,0,0,0,.018-1,5.2,5.2,0,0,0-.113-1.1,1.019,1.019,0,0,0-.4-.53.47.47,0,0,0-.416-.133,2.64,2.64,0,0,0-.663.17c-.152.076-.323.133-.4.284a1.49,1.49,0,0,0-.227.758c0,.208.019.417,0,.626a1.317,1.317,0,0,1-.095.663v.057a3.485,3.485,0,0,1,.057.777v.7c0,.038.019.095,0,.133-.057.076.019.113.057.132a.36.36,0,0,0,.152.019c.266-.019.512-.057.758-.076.208,0,.4.019.607.019.057,0,.114-.019.17-.019a3.1,3.1,0,0,1,.4.019A2.258,2.258,0,0,0,266.208,159.617Z" transform="translate(-219.277 -152.548)" fill="#d9000d"/></g></g></g></svg>